%TF.GenerationSoftware,KiCad,Pcbnew,8.0.4*%
%TF.CreationDate,2024-09-22T15:47:38+02:00*%
%TF.ProjectId,rudelblinken,72756465-6c62-46c6-996e-6b656e2e6b69,rev?*%
%TF.SameCoordinates,Original*%
%TF.FileFunction,Copper,L2,Inr*%
%TF.FilePolarity,Positive*%
%FSLAX46Y46*%
G04 Gerber Fmt 4.6, Leading zero omitted, Abs format (unit mm)*
G04 Created by KiCad (PCBNEW 8.0.4) date 2024-09-22 15:47:38*
%MOMM*%
%LPD*%
G01*
G04 APERTURE LIST*
%TA.AperFunction,ComponentPad*%
%ADD10O,1.200000X2.500000*%
%TD*%
%TA.AperFunction,ComponentPad*%
%ADD11O,1.200000X2.000000*%
%TD*%
%TA.AperFunction,ViaPad*%
%ADD12C,0.350000*%
%TD*%
%TA.AperFunction,ViaPad*%
%ADD13C,0.600000*%
%TD*%
%TA.AperFunction,ViaPad*%
%ADD14C,0.620000*%
%TD*%
%TA.AperFunction,ViaPad*%
%ADD15C,0.550000*%
%TD*%
%TA.AperFunction,ViaPad*%
%ADD16C,0.450000*%
%TD*%
G04 APERTURE END LIST*
D10*
%TO.N,SHIELD*%
%TO.C,USB1*%
X7872000Y63486800D03*
D11*
X7872000Y59286900D03*
D10*
X16512000Y63486800D03*
D11*
X16512000Y59286900D03*
%TD*%
D12*
%TO.N,RESET*%
X11008000Y79871800D03*
X7936000Y69247900D03*
D13*
X13952000Y80127800D03*
D12*
X14464000Y77887900D03*
%TO.N,LED*%
X11584000Y67647900D03*
X12864000Y83327800D03*
D13*
%TO.N,3.3V*%
X14848000Y70719800D03*
X10414000Y75184000D03*
X11136000Y66943900D03*
D12*
X16128000Y71871900D03*
X13952000Y78271900D03*
D14*
X7872000Y66047900D03*
D13*
X15360000Y70719800D03*
D12*
%TO.N,BOOT*%
X12096000Y67647900D03*
X10240000Y77631800D03*
%TO.N,XTAL_P*%
X10033000Y73406000D03*
X9906000Y75565000D03*
%TO.N,D+*%
X12065000Y73406000D03*
X12954000Y64897000D03*
D13*
%TO.N,D-*%
X11938000Y62738000D03*
D12*
X12573000Y73406000D03*
%TO.N,XTAL_N*%
X10541000Y73406000D03*
X13208000Y73406000D03*
D13*
%TO.N,VBUS*%
X16215800Y67351500D03*
X10752000Y86207800D03*
X9783800Y64767500D03*
X9779000Y65278000D03*
D14*
X14592000Y64703900D03*
D12*
%TO.N,ACC_CS*%
X16192000Y75711800D03*
X7936000Y70719800D03*
%TO.N,AMBIENT*%
X8512000Y68415900D03*
X12446000Y65405000D03*
%TO.N,ACC_SDI*%
X8832000Y67775900D03*
X15296000Y75327800D03*
%TO.N,ACC_INT2*%
X16256000Y73792100D03*
X11072000Y67647900D03*
%TO.N,ACC_INT1*%
X15999500Y74302600D03*
X10560000Y67647900D03*
%TO.N,ACC_SDO*%
X15808000Y75327800D03*
X9536000Y67647900D03*
%TO.N,ACC_CLK*%
X15936000Y76287900D03*
X7936000Y70207900D03*
D15*
%TO.N,GND*%
X14272000Y66431900D03*
D14*
X16960000Y65087900D03*
D13*
X16128000Y70719800D03*
D14*
X9984000Y68799900D03*
X11840000Y71679900D03*
X12352000Y69183900D03*
D13*
X9280000Y85055800D03*
D14*
X9984000Y71615900D03*
D13*
X9920000Y66175900D03*
D16*
X14848000Y73343800D03*
D14*
X9984000Y70207900D03*
X11840000Y70975900D03*
D13*
X8320000Y85055800D03*
X7552000Y85055800D03*
X9984000Y70911800D03*
D14*
X13843000Y75946000D03*
D13*
X9017000Y65532000D03*
D14*
X16960000Y66111900D03*
D13*
X16000000Y69055900D03*
D14*
X9984000Y69503800D03*
X11468800Y75354300D03*
D13*
X12544000Y78335800D03*
D12*
X14080000Y71423900D03*
D14*
X11840000Y69567900D03*
D13*
X12544000Y81215800D03*
D14*
X11840000Y70271900D03*
D12*
X7366000Y73025000D03*
D13*
X16064000Y68415900D03*
%TD*%
M02*
