%TF.GenerationSoftware,KiCad,Pcbnew,8.0.4*%
%TF.CreationDate,2024-09-22T15:47:38+02:00*%
%TF.ProjectId,rudelblinken,72756465-6c62-46c6-996e-6b656e2e6b69,rev?*%
%TF.SameCoordinates,Original*%
%TF.FileFunction,Copper,L4,Bot*%
%TF.FilePolarity,Positive*%
%FSLAX46Y46*%
G04 Gerber Fmt 4.6, Leading zero omitted, Abs format (unit mm)*
G04 Created by KiCad (PCBNEW 8.0.4) date 2024-09-22 15:47:38*
%MOMM*%
%LPD*%
G01*
G04 APERTURE LIST*
%TA.AperFunction,ComponentPad*%
%ADD10O,1.200000X2.500000*%
%TD*%
%TA.AperFunction,ComponentPad*%
%ADD11O,1.200000X2.000000*%
%TD*%
%TA.AperFunction,ViaPad*%
%ADD12C,0.350000*%
%TD*%
%TA.AperFunction,ViaPad*%
%ADD13C,0.600000*%
%TD*%
%TA.AperFunction,ViaPad*%
%ADD14C,0.620000*%
%TD*%
%TA.AperFunction,ViaPad*%
%ADD15C,0.550000*%
%TD*%
%TA.AperFunction,ViaPad*%
%ADD16C,0.450000*%
%TD*%
%TA.AperFunction,Conductor*%
%ADD17C,0.254000*%
%TD*%
%TA.AperFunction,Conductor*%
%ADD18C,0.600000*%
%TD*%
%TA.AperFunction,Conductor*%
%ADD19C,1.000000*%
%TD*%
G04 APERTURE END LIST*
D10*
%TO.P,USB1,0*%
%TO.N,SHIELD*%
X7872000Y63486800D03*
D11*
X7872000Y59286900D03*
D10*
X16512000Y63486800D03*
D11*
X16512000Y59286900D03*
%TD*%
D12*
%TO.N,RESET*%
X11008000Y79871800D03*
X7936000Y69247900D03*
D13*
X13952000Y80127800D03*
D12*
X14464000Y77887900D03*
%TO.N,LED*%
X11584000Y67647900D03*
X12864000Y83327800D03*
D13*
%TO.N,3.3V*%
X14848000Y70719800D03*
X10414000Y75184000D03*
X11136000Y66943900D03*
D12*
X16128000Y71871900D03*
X13952000Y78271900D03*
D14*
X7872000Y66047900D03*
D13*
X15360000Y70719800D03*
D12*
%TO.N,BOOT*%
X12096000Y67647900D03*
X10240000Y77631800D03*
%TO.N,XTAL_P*%
X10033000Y73406000D03*
X9906000Y75565000D03*
%TO.N,D+*%
X12065000Y73406000D03*
X12954000Y64897000D03*
D13*
%TO.N,D-*%
X11938000Y62738000D03*
D12*
X12573000Y73406000D03*
%TO.N,XTAL_N*%
X10541000Y73406000D03*
X13208000Y73406000D03*
D13*
%TO.N,VBUS*%
X16215800Y67351500D03*
X10752000Y86207800D03*
X9783800Y64767500D03*
X9779000Y65278000D03*
D14*
X14592000Y64703900D03*
D12*
%TO.N,ACC_CS*%
X16192000Y75711800D03*
X7936000Y70719800D03*
%TO.N,AMBIENT*%
X8512000Y68415900D03*
X12446000Y65405000D03*
%TO.N,ACC_SDI*%
X8832000Y67775900D03*
X15296000Y75327800D03*
%TO.N,ACC_INT2*%
X16256000Y73792100D03*
X11072000Y67647900D03*
%TO.N,ACC_INT1*%
X15999500Y74302600D03*
X10560000Y67647900D03*
%TO.N,ACC_SDO*%
X15808000Y75327800D03*
X9536000Y67647900D03*
%TO.N,ACC_CLK*%
X15936000Y76287900D03*
X7936000Y70207900D03*
D15*
%TO.N,GND*%
X14272000Y66431900D03*
D14*
X16960000Y65087900D03*
D13*
X16128000Y70719800D03*
D14*
X9984000Y68799900D03*
X11840000Y71679900D03*
X12352000Y69183900D03*
D13*
X9280000Y85055800D03*
D14*
X9984000Y71615900D03*
D13*
X9920000Y66175900D03*
D16*
X14848000Y73343800D03*
D14*
X9984000Y70207900D03*
X11840000Y70975900D03*
D13*
X8320000Y85055800D03*
X7552000Y85055800D03*
X9984000Y70911800D03*
D14*
X13843000Y75946000D03*
D13*
X9017000Y65532000D03*
D14*
X16960000Y66111900D03*
D13*
X16000000Y69055900D03*
D14*
X9984000Y69503800D03*
X11468800Y75354300D03*
D13*
X12544000Y78335800D03*
D12*
X14080000Y71423900D03*
D14*
X11840000Y69567900D03*
D13*
X12544000Y81215800D03*
D14*
X11840000Y70271900D03*
D12*
X7366000Y73025000D03*
D13*
X16064000Y68415900D03*
%TD*%
D17*
%TO.N,RESET*%
X7924800Y69248000D02*
X7366000Y69817000D01*
X8001000Y67945000D02*
X8001000Y69182700D01*
X7808000Y72705000D02*
X7808000Y75968900D01*
X7366000Y69817000D02*
X7366000Y72263000D01*
X10111700Y78272600D02*
X11008400Y78272600D01*
X11008400Y78272600D02*
X11008400Y79872800D01*
X8763000Y67183000D02*
X8001000Y67945000D01*
X8001000Y69182700D02*
X7936000Y69247800D01*
X8763000Y66167000D02*
X8763000Y67183000D01*
X8382000Y65786000D02*
X8763000Y66167000D01*
X7808000Y75968900D02*
X10111700Y78272600D01*
X7366000Y72263000D02*
X7808000Y72705000D01*
%TO.N,LED*%
X9857700Y72959000D02*
X9344700Y73472000D01*
X11648000Y78015800D02*
X11648000Y81343800D01*
X11648000Y81343800D02*
X12864100Y82559900D01*
X12544000Y66943900D02*
X12544000Y68095900D01*
X9344700Y74688700D02*
X9344000Y75711800D01*
X12096000Y68543900D02*
X11008000Y68543900D01*
X11584000Y67647900D02*
X11584000Y67391900D01*
X11008400Y72705000D02*
X10751800Y72959000D01*
X9344000Y75711800D02*
X11648000Y78015800D01*
X9344700Y73472000D02*
X9344700Y74688700D01*
X11584000Y67391900D02*
X12032000Y66943900D01*
X12544000Y68095900D02*
X12096000Y68543900D01*
X11008400Y68544400D02*
X11008400Y72705000D01*
X12032000Y66943900D02*
X12544000Y66943900D01*
X10751800Y72959000D02*
X9857700Y72959000D01*
X12864100Y82559900D02*
X12864100Y83327700D01*
%TO.N,3.3V*%
X13952000Y78271900D02*
X12879100Y77199000D01*
X12879100Y77199000D02*
X12879100Y74515000D01*
D18*
X14848100Y70720000D02*
X14784000Y72191900D01*
X14784000Y72191900D02*
X14147800Y72575400D01*
X13944600Y74495700D02*
X11008000Y74549000D01*
X11008000Y74559800D02*
X10414000Y75184000D01*
X14147800Y72575400D02*
X13944600Y74495700D01*
D17*
%TO.N,BOOT*%
X12095500Y67647800D02*
X12095500Y67840900D01*
X10111000Y77631800D02*
X10240000Y77631800D01*
X11838900Y68094900D02*
X10558800Y68094900D01*
X12095500Y67840900D02*
X11838900Y68094900D01*
X10368300Y72191900D02*
X8768100Y72191900D01*
X10558800Y71998800D02*
X10368300Y72191900D01*
X10558800Y68094900D02*
X10558800Y71998800D01*
X8768100Y72191900D02*
X8255000Y72705000D01*
X8255000Y72705000D02*
X8255000Y75775800D01*
X8255000Y75775800D02*
X10111000Y77631800D01*
%TO.N,XTAL_P*%
X9779000Y73660000D02*
X9779000Y75438000D01*
X10033000Y73406000D02*
X9779000Y73660000D01*
X9779000Y75438000D02*
X9906000Y75565000D01*
%TO.N,D+*%
X13056000Y69375900D02*
X12065000Y73406000D01*
X13120000Y65727900D02*
X13056000Y69375900D01*
X12954000Y64897000D02*
X13120000Y65727900D01*
%TO.N,D-*%
X13632200Y66431200D02*
X13589000Y65659000D01*
X11938000Y62992000D02*
X11938000Y62738000D01*
X12573000Y73406000D02*
X13504000Y69503800D01*
X13589000Y65659000D02*
X13589000Y64643000D01*
X13504000Y69503800D02*
X13632200Y66431200D01*
X13589000Y64643000D02*
X11938000Y62992000D01*
%TO.N,XTAL_N*%
X11049000Y73914000D02*
X10541000Y73406000D01*
X13208000Y73406000D02*
X12700000Y73914000D01*
X12700000Y73914000D02*
X11049000Y73914000D01*
D19*
%TO.N,SHIELD*%
X7871500Y61341000D02*
X7871500Y61341000D01*
X13269000Y59286100D02*
X7871500Y59286100D01*
X7871500Y63487300D02*
X7871500Y61341000D01*
X16512500Y59286100D02*
X13269000Y59286100D01*
X16512000Y63486800D02*
X16512000Y59286900D01*
X13269000Y59286100D02*
X13269000Y59286100D01*
X7871500Y61341000D02*
X7871500Y59286100D01*
D18*
%TO.N,VBUS*%
X13081000Y61976000D02*
X12954000Y61849000D01*
X13462000Y62992000D02*
X13081000Y62611000D01*
X11303000Y61849000D02*
X10922000Y62230000D01*
X10922000Y63500000D02*
X9779000Y64643000D01*
X13081000Y62611000D02*
X13081000Y61976000D01*
X14404100Y64516000D02*
X14351000Y64516000D01*
X14592000Y64704000D02*
X14404100Y64516000D01*
X13716000Y63500000D02*
X13462000Y62992000D01*
X14351000Y64516000D02*
X13716000Y63500000D01*
X9779000Y64643000D02*
X9779000Y65278000D01*
X10922000Y62230000D02*
X10922000Y63500000D01*
X12954000Y61849000D02*
X11303000Y61849000D01*
%TD*%
M02*
