M48
; DRILL file {KiCad 8.0.4} date 2024-09-22T15:47:38+0200
; FORMAT={-:-/ absolute / inch / decimal}
; #@! TF.CreationDate,2024-09-22T15:47:38+02:00
; #@! TF.GenerationSoftware,Kicad,Pcbnew,8.0.4
; #@! TF.FileFunction,Plated,1,4,PTH
FMAT,2
INCH
; #@! TA.AperFunction,Plated,PTH,ViaDrill
T1C0.0079
; #@! TA.AperFunction,Plated,PTH,ViaDrill
T2C0.0118
; #@! TA.AperFunction,Plated,PTH,ViaDrill
T3C0.0122
; #@! TA.AperFunction,Plated,PTH,ComponentDrill
T4C0.0276
%
G90
G05
T1
X0.29Y2.875
X0.3124Y2.7842
X0.3124Y2.7641
X0.3124Y2.7263
X0.3351Y2.6935
X0.3477Y2.6683
X0.3754Y2.6633
X0.39Y2.975
X0.395Y2.89
X0.4031Y3.0564
X0.415Y2.89
X0.4157Y2.6633
X0.4334Y3.1446
X0.4359Y2.6633
X0.4561Y2.6633
X0.475Y2.89
X0.4762Y2.6633
X0.49Y2.575
X0.495Y2.89
X0.5065Y3.2806
X0.51Y2.555
X0.52Y2.89
X0.5493Y3.0816
X0.5543Y2.812
X0.5694Y3.0665
X0.6022Y2.9657
X0.6224Y2.9657
X0.6274Y3.0035
X0.6299Y2.9253
X0.635Y2.8296
X0.6375Y2.9808
X0.64Y2.9052
T2
X0.2973Y3.3487
X0.3276Y3.3487
X0.3654Y3.3487
X0.4939Y3.1975
X0.4939Y3.0841
X0.5493Y3.1546
X0.5846Y2.8876
X0.5846Y2.7842
X0.6047Y2.7842
X0.6299Y2.7187
X0.6324Y2.6935
X0.635Y2.7842
X0.6384Y2.6516
T3
X0.3099Y2.6003
X0.355Y2.58
X0.385Y2.57
X0.3852Y2.5499
X0.3906Y2.6054
X0.3931Y2.8195
X0.3931Y2.7918
X0.3931Y2.7641
X0.3931Y2.7364
X0.3931Y2.7087
X0.41Y2.96
X0.4233Y3.394
X0.4384Y2.6356
X0.4515Y2.9667
X0.4661Y2.822
X0.4661Y2.7943
X0.4661Y2.7666
X0.4661Y2.7389
X0.47Y2.47
X0.4863Y2.7238
X0.545Y2.99
X0.5619Y2.6154
X0.5745Y2.5474
X0.6677Y2.6028
X0.6677Y2.5625
T4
G00X0.3099Y2.5211
M15
G01X0.3099Y2.4778
M16
G05
G00X0.3099Y2.3499
M15
G01X0.3099Y2.3184
M16
G05
G00X0.6501Y2.5211
M15
G01X0.6501Y2.4778
M16
G05
G00X0.6501Y2.3499
M15
G01X0.6501Y2.3184
M16
G05
M30
