%TF.GenerationSoftware,KiCad,Pcbnew,8.0.4*%
%TF.CreationDate,2024-09-22T15:47:38+02:00*%
%TF.ProjectId,rudelblinken,72756465-6c62-46c6-996e-6b656e2e6b69,rev?*%
%TF.SameCoordinates,Original*%
%TF.FileFunction,Legend,Top*%
%TF.FilePolarity,Positive*%
%FSLAX46Y46*%
G04 Gerber Fmt 4.6, Leading zero omitted, Abs format (unit mm)*
G04 Created by KiCad (PCBNEW 8.0.4) date 2024-09-22 15:47:38*
%MOMM*%
%LPD*%
G01*
G04 APERTURE LIST*
G04 Aperture macros list*
%AMRoundRect*
0 Rectangle with rounded corners*
0 $1 Rounding radius*
0 $2 $3 $4 $5 $6 $7 $8 $9 X,Y pos of 4 corners*
0 Add a 4 corners polygon primitive as box body*
4,1,4,$2,$3,$4,$5,$6,$7,$8,$9,$2,$3,0*
0 Add four circle primitives for the rounded corners*
1,1,$1+$1,$2,$3*
1,1,$1+$1,$4,$5*
1,1,$1+$1,$6,$7*
1,1,$1+$1,$8,$9*
0 Add four rect primitives between the rounded corners*
20,1,$1+$1,$2,$3,$4,$5,0*
20,1,$1+$1,$4,$5,$6,$7,0*
20,1,$1+$1,$6,$7,$8,$9,0*
20,1,$1+$1,$8,$9,$2,$3,0*%
%AMFreePoly0*
4,1,13,0.285921,0.305821,0.300800,0.269900,0.300800,-0.270100,0.285921,-0.306021,0.250000,-0.320900,-0.395100,-0.320900,-0.431021,-0.306021,-0.445900,-0.270100,-0.445900,0.269900,-0.431021,0.305821,-0.395100,0.320700,0.250000,0.320700,0.285921,0.305821,0.285921,0.305821,$1*%
%AMFreePoly1*
4,1,14,0.890821,1.169921,0.905700,1.134000,0.905700,-1.134000,0.890821,-1.169921,0.854900,-1.184800,-0.521000,-1.184800,-0.556921,-1.169921,-0.890921,-0.835921,-0.905800,-0.800003,-0.905900,1.133997,-0.891023,1.169919,-0.855103,1.184800,0.854900,1.184800,0.890821,1.169921,0.890821,1.169921,$1*%
%AMFreePoly2*
4,1,15,0.335821,0.635821,0.350700,0.599905,0.350800,-0.399995,0.335925,-0.435917,0.328189,-0.442262,0.028189,-0.642362,0.000000,-0.650900,-0.300100,-0.650900,-0.336021,-0.636021,-0.350900,-0.600100,-0.350900,0.599900,-0.336021,0.635821,-0.300100,0.650700,0.299900,0.650700,0.335821,0.635821,0.335821,0.635821,$1*%
%AMFreePoly3*
4,1,16,0.335821,0.635821,0.350700,0.599900,0.350700,-0.600100,0.335821,-0.636021,0.299900,-0.650900,0.299883,-0.650900,-0.000017,-0.650800,-0.028172,-0.642272,-0.328272,-0.442272,-0.349912,-0.409970,-0.350900,-0.400000,-0.350900,0.599900,-0.336021,0.635821,-0.300100,0.650700,0.299900,0.650700,0.335821,0.635821,0.335821,0.635821,$1*%
G04 Aperture macros list end*
%ADD10C,0.152400*%
%ADD11C,0.254000*%
%ADD12C,0.152000*%
%ADD13C,0.200000*%
%ADD14C,0.100000*%
%ADD15C,0.150000*%
%ADD16RoundRect,0.050800X-0.350000X0.500000X-0.350000X-0.500000X0.350000X-0.500000X0.350000X0.500000X0*%
%ADD17RoundRect,0.050800X0.350000X-0.500000X0.350000X0.500000X-0.350000X0.500000X-0.350000X-0.500000X0*%
%ADD18RoundRect,0.050800X-0.270000X0.282850X-0.270000X-0.282850X0.270000X-0.282850X0.270000X0.282850X0*%
%ADD19RoundRect,0.050800X-0.395050X-0.270000X0.395050X-0.270000X0.395050X0.270000X-0.395050X0.270000X0*%
%ADD20FreePoly0,0.000000*%
%ADD21RoundRect,0.050800X-0.325000X-0.140000X0.325000X-0.140000X0.325000X0.140000X-0.325000X0.140000X0*%
%ADD22RoundRect,0.050800X-0.140000X-0.325000X0.140000X-0.325000X0.140000X0.325000X-0.140000X0.325000X0*%
%ADD23RoundRect,0.050800X-1.900000X-1.900000X1.900000X-1.900000X1.900000X1.900000X-1.900000X1.900000X0*%
%ADD24RoundRect,0.050800X-0.270000X0.395050X-0.270000X-0.395050X0.270000X-0.395050X0.270000X0.395050X0*%
%ADD25RoundRect,0.050800X0.400000X0.400000X-0.400000X0.400000X-0.400000X-0.400000X0.400000X-0.400000X0*%
%ADD26RoundRect,0.050800X0.395050X0.270000X-0.395050X0.270000X-0.395050X-0.270000X0.395050X-0.270000X0*%
%ADD27RoundRect,0.050800X0.282850X0.270000X-0.282850X0.270000X-0.282850X-0.270000X0.282850X-0.270000X0*%
%ADD28RoundRect,0.050800X0.300000X-0.535000X0.300000X0.535000X-0.300000X0.535000X-0.300000X-0.535000X0*%
%ADD29FreePoly1,90.000000*%
%ADD30RoundRect,0.050800X1.134000X-0.855000X1.134000X0.855000X-1.134000X0.855000X-1.134000X-0.855000X0*%
%ADD31C,0.650000*%
%ADD32O,1.301600X2.601600*%
%ADD33O,1.301600X2.101600*%
%ADD34FreePoly2,0.000000*%
%ADD35FreePoly3,0.000000*%
%ADD36RoundRect,0.050800X-0.150000X-0.600000X0.150000X-0.600000X0.150000X0.600000X-0.150000X0.600000X0*%
%ADD37RoundRect,0.050800X-0.400000X-0.450000X0.400000X-0.450000X0.400000X0.450000X-0.400000X0.450000X0*%
%ADD38RoundRect,0.050800X0.442553X0.181964X-0.330281X0.346235X-0.442553X-0.181964X0.330281X-0.346235X0*%
%ADD39RoundRect,0.050800X-0.600000X0.700000X-0.600000X-0.700000X0.600000X-0.700000X0.600000X0.700000X0*%
%ADD40RoundRect,0.050800X-0.356297X0.161110X-0.144382X-0.363398X0.356297X-0.161110X0.144382X0.363398X0*%
%ADD41RoundRect,0.050800X0.140000X0.250000X-0.140000X0.250000X-0.140000X-0.250000X0.140000X-0.250000X0*%
%ADD42RoundRect,0.050800X0.250000X0.140000X-0.250000X0.140000X-0.250000X-0.140000X0.250000X-0.140000X0*%
%ADD43RoundRect,0.050800X0.350000X-0.625000X0.350000X0.625000X-0.350000X0.625000X-0.350000X-0.625000X0*%
%ADD44RoundRect,0.050800X-0.450000X-2.250000X0.450000X-2.250000X0.450000X2.250000X-0.450000X2.250000X0*%
G04 APERTURE END LIST*
D10*
X19612875Y81298235D02*
X19656417Y81428863D01*
X19656417Y81428863D02*
X19656417Y81646578D01*
X19656417Y81646578D02*
X19612875Y81733663D01*
X19612875Y81733663D02*
X19569332Y81777206D01*
X19569332Y81777206D02*
X19482246Y81820749D01*
X19482246Y81820749D02*
X19395160Y81820749D01*
X19395160Y81820749D02*
X19308075Y81777206D01*
X19308075Y81777206D02*
X19264532Y81733663D01*
X19264532Y81733663D02*
X19220989Y81646578D01*
X19220989Y81646578D02*
X19177446Y81472406D01*
X19177446Y81472406D02*
X19133903Y81385321D01*
X19133903Y81385321D02*
X19090360Y81341778D01*
X19090360Y81341778D02*
X19003275Y81298235D01*
X19003275Y81298235D02*
X18916189Y81298235D01*
X18916189Y81298235D02*
X18829103Y81341778D01*
X18829103Y81341778D02*
X18785560Y81385321D01*
X18785560Y81385321D02*
X18742017Y81472406D01*
X18742017Y81472406D02*
X18742017Y81690121D01*
X18742017Y81690121D02*
X18785560Y81820749D01*
X18742017Y82125549D02*
X19656417Y82343263D01*
X19656417Y82343263D02*
X19003275Y82517435D01*
X19003275Y82517435D02*
X19656417Y82691606D01*
X19656417Y82691606D02*
X18742017Y82909320D01*
X18829103Y83214121D02*
X18785560Y83257664D01*
X18785560Y83257664D02*
X18742017Y83344749D01*
X18742017Y83344749D02*
X18742017Y83562464D01*
X18742017Y83562464D02*
X18785560Y83649549D01*
X18785560Y83649549D02*
X18829103Y83693092D01*
X18829103Y83693092D02*
X18916189Y83736635D01*
X18916189Y83736635D02*
X19003275Y83736635D01*
X19003275Y83736635D02*
X19133903Y83693092D01*
X19133903Y83693092D02*
X19656417Y83170578D01*
X19656417Y83170578D02*
X19656417Y83736635D01*
X16469417Y66372492D02*
X16033989Y66067692D01*
X16469417Y65849978D02*
X15555017Y65849978D01*
X15555017Y65849978D02*
X15555017Y66198321D01*
X15555017Y66198321D02*
X15598560Y66285406D01*
X15598560Y66285406D02*
X15642103Y66328949D01*
X15642103Y66328949D02*
X15729189Y66372492D01*
X15729189Y66372492D02*
X15859817Y66372492D01*
X15859817Y66372492D02*
X15946903Y66328949D01*
X15946903Y66328949D02*
X15990446Y66285406D01*
X15990446Y66285406D02*
X16033989Y66198321D01*
X16033989Y66198321D02*
X16033989Y65849978D01*
X15946903Y66895006D02*
X15903360Y66807921D01*
X15903360Y66807921D02*
X15859817Y66764378D01*
X15859817Y66764378D02*
X15772732Y66720835D01*
X15772732Y66720835D02*
X15729189Y66720835D01*
X15729189Y66720835D02*
X15642103Y66764378D01*
X15642103Y66764378D02*
X15598560Y66807921D01*
X15598560Y66807921D02*
X15555017Y66895006D01*
X15555017Y66895006D02*
X15555017Y67069178D01*
X15555017Y67069178D02*
X15598560Y67156263D01*
X15598560Y67156263D02*
X15642103Y67199806D01*
X15642103Y67199806D02*
X15729189Y67243349D01*
X15729189Y67243349D02*
X15772732Y67243349D01*
X15772732Y67243349D02*
X15859817Y67199806D01*
X15859817Y67199806D02*
X15903360Y67156263D01*
X15903360Y67156263D02*
X15946903Y67069178D01*
X15946903Y67069178D02*
X15946903Y66895006D01*
X15946903Y66895006D02*
X15990446Y66807921D01*
X15990446Y66807921D02*
X16033989Y66764378D01*
X16033989Y66764378D02*
X16121075Y66720835D01*
X16121075Y66720835D02*
X16295246Y66720835D01*
X16295246Y66720835D02*
X16382332Y66764378D01*
X16382332Y66764378D02*
X16425875Y66807921D01*
X16425875Y66807921D02*
X16469417Y66895006D01*
X16469417Y66895006D02*
X16469417Y67069178D01*
X16469417Y67069178D02*
X16425875Y67156263D01*
X16425875Y67156263D02*
X16382332Y67199806D01*
X16382332Y67199806D02*
X16295246Y67243349D01*
X16295246Y67243349D02*
X16121075Y67243349D01*
X16121075Y67243349D02*
X16033989Y67199806D01*
X16033989Y67199806D02*
X15990446Y67156263D01*
X15990446Y67156263D02*
X15946903Y67069178D01*
X11508591Y76759468D02*
X11465048Y76715925D01*
X11465048Y76715925D02*
X11334420Y76672383D01*
X11334420Y76672383D02*
X11247334Y76672383D01*
X11247334Y76672383D02*
X11116705Y76715925D01*
X11116705Y76715925D02*
X11029620Y76803011D01*
X11029620Y76803011D02*
X10986077Y76890097D01*
X10986077Y76890097D02*
X10942534Y77064268D01*
X10942534Y77064268D02*
X10942534Y77194897D01*
X10942534Y77194897D02*
X10986077Y77369068D01*
X10986077Y77369068D02*
X11029620Y77456154D01*
X11029620Y77456154D02*
X11116705Y77543240D01*
X11116705Y77543240D02*
X11247334Y77586783D01*
X11247334Y77586783D02*
X11334420Y77586783D01*
X11334420Y77586783D02*
X11465048Y77543240D01*
X11465048Y77543240D02*
X11508591Y77499697D01*
X12292363Y77586783D02*
X12118191Y77586783D01*
X12118191Y77586783D02*
X12031105Y77543240D01*
X12031105Y77543240D02*
X11987563Y77499697D01*
X11987563Y77499697D02*
X11900477Y77369068D01*
X11900477Y77369068D02*
X11856934Y77194897D01*
X11856934Y77194897D02*
X11856934Y76846554D01*
X11856934Y76846554D02*
X11900477Y76759468D01*
X11900477Y76759468D02*
X11944020Y76715925D01*
X11944020Y76715925D02*
X12031105Y76672383D01*
X12031105Y76672383D02*
X12205277Y76672383D01*
X12205277Y76672383D02*
X12292363Y76715925D01*
X12292363Y76715925D02*
X12335905Y76759468D01*
X12335905Y76759468D02*
X12379448Y76846554D01*
X12379448Y76846554D02*
X12379448Y77064268D01*
X12379448Y77064268D02*
X12335905Y77151354D01*
X12335905Y77151354D02*
X12292363Y77194897D01*
X12292363Y77194897D02*
X12205277Y77238440D01*
X12205277Y77238440D02*
X12031105Y77238440D01*
X12031105Y77238440D02*
X11944020Y77194897D01*
X11944020Y77194897D02*
X11900477Y77151354D01*
X11900477Y77151354D02*
X11856934Y77064268D01*
X10858977Y74538783D02*
X10858977Y73798554D01*
X10858977Y73798554D02*
X10902520Y73711468D01*
X10902520Y73711468D02*
X10946063Y73667925D01*
X10946063Y73667925D02*
X11033148Y73624383D01*
X11033148Y73624383D02*
X11207320Y73624383D01*
X11207320Y73624383D02*
X11294405Y73667925D01*
X11294405Y73667925D02*
X11337948Y73711468D01*
X11337948Y73711468D02*
X11381491Y73798554D01*
X11381491Y73798554D02*
X11381491Y74538783D01*
X12295891Y73624383D02*
X11773377Y73624383D01*
X12034634Y73624383D02*
X12034634Y74538783D01*
X12034634Y74538783D02*
X11947548Y74408154D01*
X11947548Y74408154D02*
X11860463Y74321068D01*
X11860463Y74321068D02*
X11773377Y74277525D01*
X16636332Y73357492D02*
X16679875Y73313949D01*
X16679875Y73313949D02*
X16723417Y73183321D01*
X16723417Y73183321D02*
X16723417Y73096235D01*
X16723417Y73096235D02*
X16679875Y72965606D01*
X16679875Y72965606D02*
X16592789Y72878521D01*
X16592789Y72878521D02*
X16505703Y72834978D01*
X16505703Y72834978D02*
X16331532Y72791435D01*
X16331532Y72791435D02*
X16200903Y72791435D01*
X16200903Y72791435D02*
X16026732Y72834978D01*
X16026732Y72834978D02*
X15939646Y72878521D01*
X15939646Y72878521D02*
X15852560Y72965606D01*
X15852560Y72965606D02*
X15809017Y73096235D01*
X15809017Y73096235D02*
X15809017Y73183321D01*
X15809017Y73183321D02*
X15852560Y73313949D01*
X15852560Y73313949D02*
X15896103Y73357492D01*
X15809017Y73662292D02*
X15809017Y74271892D01*
X15809017Y74271892D02*
X16723417Y73880006D01*
X12829291Y66766383D02*
X12524491Y67201811D01*
X12306777Y66766383D02*
X12306777Y67680783D01*
X12306777Y67680783D02*
X12655120Y67680783D01*
X12655120Y67680783D02*
X12742205Y67637240D01*
X12742205Y67637240D02*
X12785748Y67593697D01*
X12785748Y67593697D02*
X12829291Y67506611D01*
X12829291Y67506611D02*
X12829291Y67375983D01*
X12829291Y67375983D02*
X12785748Y67288897D01*
X12785748Y67288897D02*
X12742205Y67245354D01*
X12742205Y67245354D02*
X12655120Y67201811D01*
X12655120Y67201811D02*
X12306777Y67201811D01*
X13613063Y67375983D02*
X13613063Y66766383D01*
X13395348Y67724325D02*
X13177634Y67071183D01*
X13177634Y67071183D02*
X13743691Y67071183D01*
X9350075Y80145935D02*
X9393617Y80276563D01*
X9393617Y80276563D02*
X9393617Y80494278D01*
X9393617Y80494278D02*
X9350075Y80581363D01*
X9350075Y80581363D02*
X9306532Y80624906D01*
X9306532Y80624906D02*
X9219446Y80668449D01*
X9219446Y80668449D02*
X9132360Y80668449D01*
X9132360Y80668449D02*
X9045275Y80624906D01*
X9045275Y80624906D02*
X9001732Y80581363D01*
X9001732Y80581363D02*
X8958189Y80494278D01*
X8958189Y80494278D02*
X8914646Y80320106D01*
X8914646Y80320106D02*
X8871103Y80233021D01*
X8871103Y80233021D02*
X8827560Y80189478D01*
X8827560Y80189478D02*
X8740475Y80145935D01*
X8740475Y80145935D02*
X8653389Y80145935D01*
X8653389Y80145935D02*
X8566303Y80189478D01*
X8566303Y80189478D02*
X8522760Y80233021D01*
X8522760Y80233021D02*
X8479217Y80320106D01*
X8479217Y80320106D02*
X8479217Y80537821D01*
X8479217Y80537821D02*
X8522760Y80668449D01*
X8479217Y80973249D02*
X9393617Y81190963D01*
X9393617Y81190963D02*
X8740475Y81365135D01*
X8740475Y81365135D02*
X9393617Y81539306D01*
X9393617Y81539306D02*
X8479217Y81757020D01*
X9393617Y82584335D02*
X9393617Y82061821D01*
X9393617Y82323078D02*
X8479217Y82323078D01*
X8479217Y82323078D02*
X8609846Y82235992D01*
X8609846Y82235992D02*
X8696932Y82148907D01*
X8696932Y82148907D02*
X8740475Y82061821D01*
X16392491Y68756568D02*
X16348948Y68713025D01*
X16348948Y68713025D02*
X16218320Y68669483D01*
X16218320Y68669483D02*
X16131234Y68669483D01*
X16131234Y68669483D02*
X16000605Y68713025D01*
X16000605Y68713025D02*
X15913520Y68800111D01*
X15913520Y68800111D02*
X15869977Y68887197D01*
X15869977Y68887197D02*
X15826434Y69061368D01*
X15826434Y69061368D02*
X15826434Y69191997D01*
X15826434Y69191997D02*
X15869977Y69366168D01*
X15869977Y69366168D02*
X15913520Y69453254D01*
X15913520Y69453254D02*
X16000605Y69540340D01*
X16000605Y69540340D02*
X16131234Y69583883D01*
X16131234Y69583883D02*
X16218320Y69583883D01*
X16218320Y69583883D02*
X16348948Y69540340D01*
X16348948Y69540340D02*
X16392491Y69496797D01*
X17263348Y68669483D02*
X16740834Y68669483D01*
X17002091Y68669483D02*
X17002091Y69583883D01*
X17002091Y69583883D02*
X16915005Y69453254D01*
X16915005Y69453254D02*
X16827920Y69366168D01*
X16827920Y69366168D02*
X16740834Y69322625D01*
X17568148Y69583883D02*
X18134205Y69583883D01*
X18134205Y69583883D02*
X17829405Y69235540D01*
X17829405Y69235540D02*
X17960034Y69235540D01*
X17960034Y69235540D02*
X18047120Y69191997D01*
X18047120Y69191997D02*
X18090662Y69148454D01*
X18090662Y69148454D02*
X18134205Y69061368D01*
X18134205Y69061368D02*
X18134205Y68843654D01*
X18134205Y68843654D02*
X18090662Y68756568D01*
X18090662Y68756568D02*
X18047120Y68713025D01*
X18047120Y68713025D02*
X17960034Y68669483D01*
X17960034Y68669483D02*
X17698777Y68669483D01*
X17698777Y68669483D02*
X17611691Y68713025D01*
X17611691Y68713025D02*
X17568148Y68756568D01*
X16968491Y77677368D02*
X16924948Y77633825D01*
X16924948Y77633825D02*
X16794320Y77590283D01*
X16794320Y77590283D02*
X16707234Y77590283D01*
X16707234Y77590283D02*
X16576605Y77633825D01*
X16576605Y77633825D02*
X16489520Y77720911D01*
X16489520Y77720911D02*
X16445977Y77807997D01*
X16445977Y77807997D02*
X16402434Y77982168D01*
X16402434Y77982168D02*
X16402434Y78112797D01*
X16402434Y78112797D02*
X16445977Y78286968D01*
X16445977Y78286968D02*
X16489520Y78374054D01*
X16489520Y78374054D02*
X16576605Y78461140D01*
X16576605Y78461140D02*
X16707234Y78504683D01*
X16707234Y78504683D02*
X16794320Y78504683D01*
X16794320Y78504683D02*
X16924948Y78461140D01*
X16924948Y78461140D02*
X16968491Y78417597D01*
X17491005Y78112797D02*
X17403920Y78156340D01*
X17403920Y78156340D02*
X17360377Y78199883D01*
X17360377Y78199883D02*
X17316834Y78286968D01*
X17316834Y78286968D02*
X17316834Y78330511D01*
X17316834Y78330511D02*
X17360377Y78417597D01*
X17360377Y78417597D02*
X17403920Y78461140D01*
X17403920Y78461140D02*
X17491005Y78504683D01*
X17491005Y78504683D02*
X17665177Y78504683D01*
X17665177Y78504683D02*
X17752263Y78461140D01*
X17752263Y78461140D02*
X17795805Y78417597D01*
X17795805Y78417597D02*
X17839348Y78330511D01*
X17839348Y78330511D02*
X17839348Y78286968D01*
X17839348Y78286968D02*
X17795805Y78199883D01*
X17795805Y78199883D02*
X17752263Y78156340D01*
X17752263Y78156340D02*
X17665177Y78112797D01*
X17665177Y78112797D02*
X17491005Y78112797D01*
X17491005Y78112797D02*
X17403920Y78069254D01*
X17403920Y78069254D02*
X17360377Y78025711D01*
X17360377Y78025711D02*
X17316834Y77938625D01*
X17316834Y77938625D02*
X17316834Y77764454D01*
X17316834Y77764454D02*
X17360377Y77677368D01*
X17360377Y77677368D02*
X17403920Y77633825D01*
X17403920Y77633825D02*
X17491005Y77590283D01*
X17491005Y77590283D02*
X17665177Y77590283D01*
X17665177Y77590283D02*
X17752263Y77633825D01*
X17752263Y77633825D02*
X17795805Y77677368D01*
X17795805Y77677368D02*
X17839348Y77764454D01*
X17839348Y77764454D02*
X17839348Y77938625D01*
X17839348Y77938625D02*
X17795805Y78025711D01*
X17795805Y78025711D02*
X17752263Y78069254D01*
X17752263Y78069254D02*
X17665177Y78112797D01*
X8712491Y62717483D02*
X8407691Y63152911D01*
X8189977Y62717483D02*
X8189977Y63631883D01*
X8189977Y63631883D02*
X8538320Y63631883D01*
X8538320Y63631883D02*
X8625405Y63588340D01*
X8625405Y63588340D02*
X8668948Y63544797D01*
X8668948Y63544797D02*
X8712491Y63457711D01*
X8712491Y63457711D02*
X8712491Y63327083D01*
X8712491Y63327083D02*
X8668948Y63239997D01*
X8668948Y63239997D02*
X8625405Y63196454D01*
X8625405Y63196454D02*
X8538320Y63152911D01*
X8538320Y63152911D02*
X8189977Y63152911D01*
X9060834Y63544797D02*
X9104377Y63588340D01*
X9104377Y63588340D02*
X9191463Y63631883D01*
X9191463Y63631883D02*
X9409177Y63631883D01*
X9409177Y63631883D02*
X9496263Y63588340D01*
X9496263Y63588340D02*
X9539805Y63544797D01*
X9539805Y63544797D02*
X9583348Y63457711D01*
X9583348Y63457711D02*
X9583348Y63370625D01*
X9583348Y63370625D02*
X9539805Y63239997D01*
X9539805Y63239997D02*
X9017291Y62717483D01*
X9017291Y62717483D02*
X9583348Y62717483D01*
X12833217Y68157778D02*
X13573446Y68157778D01*
X13573446Y68157778D02*
X13660532Y68201321D01*
X13660532Y68201321D02*
X13704075Y68244863D01*
X13704075Y68244863D02*
X13747617Y68331949D01*
X13747617Y68331949D02*
X13747617Y68506121D01*
X13747617Y68506121D02*
X13704075Y68593206D01*
X13704075Y68593206D02*
X13660532Y68636749D01*
X13660532Y68636749D02*
X13573446Y68680292D01*
X13573446Y68680292D02*
X12833217Y68680292D01*
X12920303Y69072178D02*
X12876760Y69115721D01*
X12876760Y69115721D02*
X12833217Y69202806D01*
X12833217Y69202806D02*
X12833217Y69420521D01*
X12833217Y69420521D02*
X12876760Y69507606D01*
X12876760Y69507606D02*
X12920303Y69551149D01*
X12920303Y69551149D02*
X13007389Y69594692D01*
X13007389Y69594692D02*
X13094475Y69594692D01*
X13094475Y69594692D02*
X13225103Y69551149D01*
X13225103Y69551149D02*
X13747617Y69028635D01*
X13747617Y69028635D02*
X13747617Y69594692D01*
X13250417Y66632392D02*
X12814989Y66327592D01*
X13250417Y66109878D02*
X12336017Y66109878D01*
X12336017Y66109878D02*
X12336017Y66458221D01*
X12336017Y66458221D02*
X12379560Y66545306D01*
X12379560Y66545306D02*
X12423103Y66588849D01*
X12423103Y66588849D02*
X12510189Y66632392D01*
X12510189Y66632392D02*
X12640817Y66632392D01*
X12640817Y66632392D02*
X12727903Y66588849D01*
X12727903Y66588849D02*
X12771446Y66545306D01*
X12771446Y66545306D02*
X12814989Y66458221D01*
X12814989Y66458221D02*
X12814989Y66109878D01*
X12336017Y66937192D02*
X12336017Y67546792D01*
X12336017Y67546792D02*
X13250417Y67154906D01*
X6639617Y80255406D02*
X6639617Y79819978D01*
X6639617Y79819978D02*
X5725217Y79819978D01*
X6639617Y81039178D02*
X6639617Y80516664D01*
X6639617Y80777921D02*
X5725217Y80777921D01*
X5725217Y80777921D02*
X5855846Y80690835D01*
X5855846Y80690835D02*
X5942932Y80603750D01*
X5942932Y80603750D02*
X5986475Y80516664D01*
X10731977Y61457783D02*
X10731977Y60717554D01*
X10731977Y60717554D02*
X10775520Y60630468D01*
X10775520Y60630468D02*
X10819063Y60586925D01*
X10819063Y60586925D02*
X10906148Y60543383D01*
X10906148Y60543383D02*
X11080320Y60543383D01*
X11080320Y60543383D02*
X11167405Y60586925D01*
X11167405Y60586925D02*
X11210948Y60630468D01*
X11210948Y60630468D02*
X11254491Y60717554D01*
X11254491Y60717554D02*
X11254491Y61457783D01*
X11646377Y60586925D02*
X11777006Y60543383D01*
X11777006Y60543383D02*
X11994720Y60543383D01*
X11994720Y60543383D02*
X12081806Y60586925D01*
X12081806Y60586925D02*
X12125348Y60630468D01*
X12125348Y60630468D02*
X12168891Y60717554D01*
X12168891Y60717554D02*
X12168891Y60804640D01*
X12168891Y60804640D02*
X12125348Y60891725D01*
X12125348Y60891725D02*
X12081806Y60935268D01*
X12081806Y60935268D02*
X11994720Y60978811D01*
X11994720Y60978811D02*
X11820548Y61022354D01*
X11820548Y61022354D02*
X11733463Y61065897D01*
X11733463Y61065897D02*
X11689920Y61109440D01*
X11689920Y61109440D02*
X11646377Y61196525D01*
X11646377Y61196525D02*
X11646377Y61283611D01*
X11646377Y61283611D02*
X11689920Y61370697D01*
X11689920Y61370697D02*
X11733463Y61414240D01*
X11733463Y61414240D02*
X11820548Y61457783D01*
X11820548Y61457783D02*
X12038263Y61457783D01*
X12038263Y61457783D02*
X12168891Y61414240D01*
X12865577Y61022354D02*
X12996205Y60978811D01*
X12996205Y60978811D02*
X13039748Y60935268D01*
X13039748Y60935268D02*
X13083291Y60848183D01*
X13083291Y60848183D02*
X13083291Y60717554D01*
X13083291Y60717554D02*
X13039748Y60630468D01*
X13039748Y60630468D02*
X12996205Y60586925D01*
X12996205Y60586925D02*
X12909120Y60543383D01*
X12909120Y60543383D02*
X12560777Y60543383D01*
X12560777Y60543383D02*
X12560777Y61457783D01*
X12560777Y61457783D02*
X12865577Y61457783D01*
X12865577Y61457783D02*
X12952663Y61414240D01*
X12952663Y61414240D02*
X12996205Y61370697D01*
X12996205Y61370697D02*
X13039748Y61283611D01*
X13039748Y61283611D02*
X13039748Y61196525D01*
X13039748Y61196525D02*
X12996205Y61109440D01*
X12996205Y61109440D02*
X12952663Y61065897D01*
X12952663Y61065897D02*
X12865577Y61022354D01*
X12865577Y61022354D02*
X12560777Y61022354D01*
X13954148Y60543383D02*
X13431634Y60543383D01*
X13692891Y60543383D02*
X13692891Y61457783D01*
X13692891Y61457783D02*
X13605805Y61327154D01*
X13605805Y61327154D02*
X13518720Y61240068D01*
X13518720Y61240068D02*
X13431634Y61196525D01*
X16330491Y71147368D02*
X16286948Y71103825D01*
X16286948Y71103825D02*
X16156320Y71060283D01*
X16156320Y71060283D02*
X16069234Y71060283D01*
X16069234Y71060283D02*
X15938605Y71103825D01*
X15938605Y71103825D02*
X15851520Y71190911D01*
X15851520Y71190911D02*
X15807977Y71277997D01*
X15807977Y71277997D02*
X15764434Y71452168D01*
X15764434Y71452168D02*
X15764434Y71582797D01*
X15764434Y71582797D02*
X15807977Y71756968D01*
X15807977Y71756968D02*
X15851520Y71844054D01*
X15851520Y71844054D02*
X15938605Y71931140D01*
X15938605Y71931140D02*
X16069234Y71974683D01*
X16069234Y71974683D02*
X16156320Y71974683D01*
X16156320Y71974683D02*
X16286948Y71931140D01*
X16286948Y71931140D02*
X16330491Y71887597D01*
X17201348Y71060283D02*
X16678834Y71060283D01*
X16940091Y71060283D02*
X16940091Y71974683D01*
X16940091Y71974683D02*
X16853005Y71844054D01*
X16853005Y71844054D02*
X16765920Y71756968D01*
X16765920Y71756968D02*
X16678834Y71713425D01*
X17985120Y71974683D02*
X17810948Y71974683D01*
X17810948Y71974683D02*
X17723862Y71931140D01*
X17723862Y71931140D02*
X17680320Y71887597D01*
X17680320Y71887597D02*
X17593234Y71756968D01*
X17593234Y71756968D02*
X17549691Y71582797D01*
X17549691Y71582797D02*
X17549691Y71234454D01*
X17549691Y71234454D02*
X17593234Y71147368D01*
X17593234Y71147368D02*
X17636777Y71103825D01*
X17636777Y71103825D02*
X17723862Y71060283D01*
X17723862Y71060283D02*
X17898034Y71060283D01*
X17898034Y71060283D02*
X17985120Y71103825D01*
X17985120Y71103825D02*
X18028662Y71147368D01*
X18028662Y71147368D02*
X18072205Y71234454D01*
X18072205Y71234454D02*
X18072205Y71452168D01*
X18072205Y71452168D02*
X18028662Y71539254D01*
X18028662Y71539254D02*
X17985120Y71582797D01*
X17985120Y71582797D02*
X17898034Y71626340D01*
X17898034Y71626340D02*
X17723862Y71626340D01*
X17723862Y71626340D02*
X17636777Y71582797D01*
X17636777Y71582797D02*
X17593234Y71539254D01*
X17593234Y71539254D02*
X17549691Y71452168D01*
X8870197Y63581359D02*
X8818552Y63547821D01*
X8818552Y63547821D02*
X8681725Y63532389D01*
X8681725Y63532389D02*
X8596542Y63550495D01*
X8596542Y63550495D02*
X8477821Y63620246D01*
X8477821Y63620246D02*
X8410745Y63723535D01*
X8410745Y63723535D02*
X8386260Y63817770D01*
X8386260Y63817770D02*
X8379881Y63997189D01*
X8379881Y63997189D02*
X8407040Y64124963D01*
X8407040Y64124963D02*
X8485844Y64286275D01*
X8485844Y64286275D02*
X8546541Y64362405D01*
X8546541Y64362405D02*
X8649830Y64429481D01*
X8649830Y64429481D02*
X8786657Y64444913D01*
X8786657Y64444913D02*
X8871840Y64426807D01*
X8871840Y64426807D02*
X8990561Y64357057D01*
X8990561Y64357057D02*
X9024099Y64305412D01*
X9703917Y63315115D02*
X9192821Y63423752D01*
X9448369Y63369434D02*
X9638484Y64263852D01*
X9638484Y64263852D02*
X9526142Y64154184D01*
X9526142Y64154184D02*
X9422853Y64087108D01*
X9422853Y64087108D02*
X9328617Y64062622D01*
X9659391Y72113668D02*
X9615848Y72070125D01*
X9615848Y72070125D02*
X9485220Y72026583D01*
X9485220Y72026583D02*
X9398134Y72026583D01*
X9398134Y72026583D02*
X9267505Y72070125D01*
X9267505Y72070125D02*
X9180420Y72157211D01*
X9180420Y72157211D02*
X9136877Y72244297D01*
X9136877Y72244297D02*
X9093334Y72418468D01*
X9093334Y72418468D02*
X9093334Y72549097D01*
X9093334Y72549097D02*
X9136877Y72723268D01*
X9136877Y72723268D02*
X9180420Y72810354D01*
X9180420Y72810354D02*
X9267505Y72897440D01*
X9267505Y72897440D02*
X9398134Y72940983D01*
X9398134Y72940983D02*
X9485220Y72940983D01*
X9485220Y72940983D02*
X9615848Y72897440D01*
X9615848Y72897440D02*
X9659391Y72853897D01*
X10007734Y72853897D02*
X10051277Y72897440D01*
X10051277Y72897440D02*
X10138363Y72940983D01*
X10138363Y72940983D02*
X10356077Y72940983D01*
X10356077Y72940983D02*
X10443163Y72897440D01*
X10443163Y72897440D02*
X10486705Y72853897D01*
X10486705Y72853897D02*
X10530248Y72766811D01*
X10530248Y72766811D02*
X10530248Y72679725D01*
X10530248Y72679725D02*
X10486705Y72549097D01*
X10486705Y72549097D02*
X9964191Y72026583D01*
X9964191Y72026583D02*
X10530248Y72026583D01*
X16190317Y76049892D02*
X17104717Y76659492D01*
X16190317Y76659492D02*
X17104717Y76049892D01*
X17104717Y77486806D02*
X17104717Y76964292D01*
X17104717Y77225549D02*
X16190317Y77225549D01*
X16190317Y77225549D02*
X16320946Y77138463D01*
X16320946Y77138463D02*
X16408032Y77051378D01*
X16408032Y77051378D02*
X16451575Y76964292D01*
X19435332Y72648392D02*
X19478875Y72604849D01*
X19478875Y72604849D02*
X19522417Y72474221D01*
X19522417Y72474221D02*
X19522417Y72387135D01*
X19522417Y72387135D02*
X19478875Y72256506D01*
X19478875Y72256506D02*
X19391789Y72169421D01*
X19391789Y72169421D02*
X19304703Y72125878D01*
X19304703Y72125878D02*
X19130532Y72082335D01*
X19130532Y72082335D02*
X18999903Y72082335D01*
X18999903Y72082335D02*
X18825732Y72125878D01*
X18825732Y72125878D02*
X18738646Y72169421D01*
X18738646Y72169421D02*
X18651560Y72256506D01*
X18651560Y72256506D02*
X18608017Y72387135D01*
X18608017Y72387135D02*
X18608017Y72474221D01*
X18608017Y72474221D02*
X18651560Y72604849D01*
X18651560Y72604849D02*
X18695103Y72648392D01*
X18608017Y72953192D02*
X18608017Y73519249D01*
X18608017Y73519249D02*
X18956360Y73214449D01*
X18956360Y73214449D02*
X18956360Y73345078D01*
X18956360Y73345078D02*
X18999903Y73432163D01*
X18999903Y73432163D02*
X19043446Y73475706D01*
X19043446Y73475706D02*
X19130532Y73519249D01*
X19130532Y73519249D02*
X19348246Y73519249D01*
X19348246Y73519249D02*
X19435332Y73475706D01*
X19435332Y73475706D02*
X19478875Y73432163D01*
X19478875Y73432163D02*
X19522417Y73345078D01*
X19522417Y73345078D02*
X19522417Y73083821D01*
X19522417Y73083821D02*
X19478875Y72996735D01*
X19478875Y72996735D02*
X19435332Y72953192D01*
X17627029Y77328767D02*
X17916571Y77774487D01*
X17431292Y77813234D02*
X18279109Y78155774D01*
X18279109Y78155774D02*
X18409600Y77832797D01*
X18409600Y77832797D02*
X18401851Y77735741D01*
X18401851Y77735741D02*
X18377790Y77679057D01*
X18377790Y77679057D02*
X18313357Y77606062D01*
X18313357Y77606062D02*
X18192240Y77557128D01*
X18192240Y77557128D02*
X18095184Y77564877D01*
X18095184Y77564877D02*
X18038501Y77588938D01*
X18038501Y77588938D02*
X17965506Y77653371D01*
X17965506Y77653371D02*
X17835014Y77976349D01*
X18589026Y77388702D02*
X18801075Y76863863D01*
X18801075Y76863863D02*
X18363917Y77015977D01*
X18363917Y77015977D02*
X18412851Y76894860D01*
X18412851Y76894860D02*
X18405102Y76797804D01*
X18405102Y76797804D02*
X18381041Y76741121D01*
X18381041Y76741121D02*
X18316608Y76668126D01*
X18316608Y76668126D02*
X18114747Y76586568D01*
X18114747Y76586568D02*
X18017691Y76594318D01*
X18017691Y76594318D02*
X17961007Y76618379D01*
X17961007Y76618379D02*
X17888012Y76682812D01*
X17888012Y76682812D02*
X17790143Y76925045D01*
X17790143Y76925045D02*
X17797893Y77022101D01*
X17797893Y77022101D02*
X17821954Y77078785D01*
X16450077Y71482983D02*
X16450077Y70742754D01*
X16450077Y70742754D02*
X16493620Y70655668D01*
X16493620Y70655668D02*
X16537163Y70612125D01*
X16537163Y70612125D02*
X16624248Y70568583D01*
X16624248Y70568583D02*
X16798420Y70568583D01*
X16798420Y70568583D02*
X16885505Y70612125D01*
X16885505Y70612125D02*
X16929048Y70655668D01*
X16929048Y70655668D02*
X16972591Y70742754D01*
X16972591Y70742754D02*
X16972591Y71482983D01*
X17843448Y71482983D02*
X17408020Y71482983D01*
X17408020Y71482983D02*
X17364477Y71047554D01*
X17364477Y71047554D02*
X17408020Y71091097D01*
X17408020Y71091097D02*
X17495106Y71134640D01*
X17495106Y71134640D02*
X17712820Y71134640D01*
X17712820Y71134640D02*
X17799906Y71091097D01*
X17799906Y71091097D02*
X17843448Y71047554D01*
X17843448Y71047554D02*
X17886991Y70960468D01*
X17886991Y70960468D02*
X17886991Y70742754D01*
X17886991Y70742754D02*
X17843448Y70655668D01*
X17843448Y70655668D02*
X17799906Y70612125D01*
X17799906Y70612125D02*
X17712820Y70568583D01*
X17712820Y70568583D02*
X17495106Y70568583D01*
X17495106Y70568583D02*
X17408020Y70612125D01*
X17408020Y70612125D02*
X17364477Y70655668D01*
X12905491Y72644668D02*
X12861948Y72601125D01*
X12861948Y72601125D02*
X12731320Y72557583D01*
X12731320Y72557583D02*
X12644234Y72557583D01*
X12644234Y72557583D02*
X12513605Y72601125D01*
X12513605Y72601125D02*
X12426520Y72688211D01*
X12426520Y72688211D02*
X12382977Y72775297D01*
X12382977Y72775297D02*
X12339434Y72949468D01*
X12339434Y72949468D02*
X12339434Y73080097D01*
X12339434Y73080097D02*
X12382977Y73254268D01*
X12382977Y73254268D02*
X12426520Y73341354D01*
X12426520Y73341354D02*
X12513605Y73428440D01*
X12513605Y73428440D02*
X12644234Y73471983D01*
X12644234Y73471983D02*
X12731320Y73471983D01*
X12731320Y73471983D02*
X12861948Y73428440D01*
X12861948Y73428440D02*
X12905491Y73384897D01*
X13776348Y72557583D02*
X13253834Y72557583D01*
X13515091Y72557583D02*
X13515091Y73471983D01*
X13515091Y73471983D02*
X13428005Y73341354D01*
X13428005Y73341354D02*
X13340920Y73254268D01*
X13340920Y73254268D02*
X13253834Y73210725D01*
X14342405Y73471983D02*
X14429491Y73471983D01*
X14429491Y73471983D02*
X14516577Y73428440D01*
X14516577Y73428440D02*
X14560120Y73384897D01*
X14560120Y73384897D02*
X14603662Y73297811D01*
X14603662Y73297811D02*
X14647205Y73123640D01*
X14647205Y73123640D02*
X14647205Y72905925D01*
X14647205Y72905925D02*
X14603662Y72731754D01*
X14603662Y72731754D02*
X14560120Y72644668D01*
X14560120Y72644668D02*
X14516577Y72601125D01*
X14516577Y72601125D02*
X14429491Y72557583D01*
X14429491Y72557583D02*
X14342405Y72557583D01*
X14342405Y72557583D02*
X14255320Y72601125D01*
X14255320Y72601125D02*
X14211777Y72644668D01*
X14211777Y72644668D02*
X14168234Y72731754D01*
X14168234Y72731754D02*
X14124691Y72905925D01*
X14124691Y72905925D02*
X14124691Y73123640D01*
X14124691Y73123640D02*
X14168234Y73297811D01*
X14168234Y73297811D02*
X14211777Y73384897D01*
X14211777Y73384897D02*
X14255320Y73428440D01*
X14255320Y73428440D02*
X14342405Y73471983D01*
X16522491Y66667368D02*
X16478948Y66623825D01*
X16478948Y66623825D02*
X16348320Y66580283D01*
X16348320Y66580283D02*
X16261234Y66580283D01*
X16261234Y66580283D02*
X16130605Y66623825D01*
X16130605Y66623825D02*
X16043520Y66710911D01*
X16043520Y66710911D02*
X15999977Y66797997D01*
X15999977Y66797997D02*
X15956434Y66972168D01*
X15956434Y66972168D02*
X15956434Y67102797D01*
X15956434Y67102797D02*
X15999977Y67276968D01*
X15999977Y67276968D02*
X16043520Y67364054D01*
X16043520Y67364054D02*
X16130605Y67451140D01*
X16130605Y67451140D02*
X16261234Y67494683D01*
X16261234Y67494683D02*
X16348320Y67494683D01*
X16348320Y67494683D02*
X16478948Y67451140D01*
X16478948Y67451140D02*
X16522491Y67407597D01*
X17349805Y67494683D02*
X16914377Y67494683D01*
X16914377Y67494683D02*
X16870834Y67059254D01*
X16870834Y67059254D02*
X16914377Y67102797D01*
X16914377Y67102797D02*
X17001463Y67146340D01*
X17001463Y67146340D02*
X17219177Y67146340D01*
X17219177Y67146340D02*
X17306263Y67102797D01*
X17306263Y67102797D02*
X17349805Y67059254D01*
X17349805Y67059254D02*
X17393348Y66972168D01*
X17393348Y66972168D02*
X17393348Y66754454D01*
X17393348Y66754454D02*
X17349805Y66667368D01*
X17349805Y66667368D02*
X17306263Y66623825D01*
X17306263Y66623825D02*
X17219177Y66580283D01*
X17219177Y66580283D02*
X17001463Y66580283D01*
X17001463Y66580283D02*
X16914377Y66623825D01*
X16914377Y66623825D02*
X16870834Y66667368D01*
X16392491Y73261368D02*
X16348948Y73217825D01*
X16348948Y73217825D02*
X16218320Y73174283D01*
X16218320Y73174283D02*
X16131234Y73174283D01*
X16131234Y73174283D02*
X16000605Y73217825D01*
X16000605Y73217825D02*
X15913520Y73304911D01*
X15913520Y73304911D02*
X15869977Y73391997D01*
X15869977Y73391997D02*
X15826434Y73566168D01*
X15826434Y73566168D02*
X15826434Y73696797D01*
X15826434Y73696797D02*
X15869977Y73870968D01*
X15869977Y73870968D02*
X15913520Y73958054D01*
X15913520Y73958054D02*
X16000605Y74045140D01*
X16000605Y74045140D02*
X16131234Y74088683D01*
X16131234Y74088683D02*
X16218320Y74088683D01*
X16218320Y74088683D02*
X16348948Y74045140D01*
X16348948Y74045140D02*
X16392491Y74001597D01*
X17176263Y73783883D02*
X17176263Y73174283D01*
X16958548Y74132225D02*
X16740834Y73479083D01*
X16740834Y73479083D02*
X17306891Y73479083D01*
X7106191Y65208668D02*
X7062648Y65165125D01*
X7062648Y65165125D02*
X6932020Y65121583D01*
X6932020Y65121583D02*
X6844934Y65121583D01*
X6844934Y65121583D02*
X6714305Y65165125D01*
X6714305Y65165125D02*
X6627220Y65252211D01*
X6627220Y65252211D02*
X6583677Y65339297D01*
X6583677Y65339297D02*
X6540134Y65513468D01*
X6540134Y65513468D02*
X6540134Y65644097D01*
X6540134Y65644097D02*
X6583677Y65818268D01*
X6583677Y65818268D02*
X6627220Y65905354D01*
X6627220Y65905354D02*
X6714305Y65992440D01*
X6714305Y65992440D02*
X6844934Y66035983D01*
X6844934Y66035983D02*
X6932020Y66035983D01*
X6932020Y66035983D02*
X7062648Y65992440D01*
X7062648Y65992440D02*
X7106191Y65948897D01*
X7541620Y65121583D02*
X7715791Y65121583D01*
X7715791Y65121583D02*
X7802877Y65165125D01*
X7802877Y65165125D02*
X7846420Y65208668D01*
X7846420Y65208668D02*
X7933505Y65339297D01*
X7933505Y65339297D02*
X7977048Y65513468D01*
X7977048Y65513468D02*
X7977048Y65861811D01*
X7977048Y65861811D02*
X7933505Y65948897D01*
X7933505Y65948897D02*
X7889963Y65992440D01*
X7889963Y65992440D02*
X7802877Y66035983D01*
X7802877Y66035983D02*
X7628705Y66035983D01*
X7628705Y66035983D02*
X7541620Y65992440D01*
X7541620Y65992440D02*
X7498077Y65948897D01*
X7498077Y65948897D02*
X7454534Y65861811D01*
X7454534Y65861811D02*
X7454534Y65644097D01*
X7454534Y65644097D02*
X7498077Y65557011D01*
X7498077Y65557011D02*
X7541620Y65513468D01*
X7541620Y65513468D02*
X7628705Y65469925D01*
X7628705Y65469925D02*
X7802877Y65469925D01*
X7802877Y65469925D02*
X7889963Y65513468D01*
X7889963Y65513468D02*
X7933505Y65557011D01*
X7933505Y65557011D02*
X7977048Y65644097D01*
X10032332Y72849492D02*
X10075875Y72805949D01*
X10075875Y72805949D02*
X10119417Y72675321D01*
X10119417Y72675321D02*
X10119417Y72588235D01*
X10119417Y72588235D02*
X10075875Y72457606D01*
X10075875Y72457606D02*
X9988789Y72370521D01*
X9988789Y72370521D02*
X9901703Y72326978D01*
X9901703Y72326978D02*
X9727532Y72283435D01*
X9727532Y72283435D02*
X9596903Y72283435D01*
X9596903Y72283435D02*
X9422732Y72326978D01*
X9422732Y72326978D02*
X9335646Y72370521D01*
X9335646Y72370521D02*
X9248560Y72457606D01*
X9248560Y72457606D02*
X9205017Y72588235D01*
X9205017Y72588235D02*
X9205017Y72675321D01*
X9205017Y72675321D02*
X9248560Y72805949D01*
X9248560Y72805949D02*
X9292103Y72849492D01*
X10119417Y73720349D02*
X10119417Y73197835D01*
X10119417Y73459092D02*
X9205017Y73459092D01*
X9205017Y73459092D02*
X9335646Y73372006D01*
X9335646Y73372006D02*
X9422732Y73284921D01*
X9422732Y73284921D02*
X9466275Y73197835D01*
X10119417Y74591206D02*
X10119417Y74068692D01*
X10119417Y74329949D02*
X9205017Y74329949D01*
X9205017Y74329949D02*
X9335646Y74242863D01*
X9335646Y74242863D02*
X9422732Y74155778D01*
X9422732Y74155778D02*
X9466275Y74068692D01*
X16619332Y71176392D02*
X16662875Y71132849D01*
X16662875Y71132849D02*
X16706417Y71002221D01*
X16706417Y71002221D02*
X16706417Y70915135D01*
X16706417Y70915135D02*
X16662875Y70784506D01*
X16662875Y70784506D02*
X16575789Y70697421D01*
X16575789Y70697421D02*
X16488703Y70653878D01*
X16488703Y70653878D02*
X16314532Y70610335D01*
X16314532Y70610335D02*
X16183903Y70610335D01*
X16183903Y70610335D02*
X16009732Y70653878D01*
X16009732Y70653878D02*
X15922646Y70697421D01*
X15922646Y70697421D02*
X15835560Y70784506D01*
X15835560Y70784506D02*
X15792017Y70915135D01*
X15792017Y70915135D02*
X15792017Y71002221D01*
X15792017Y71002221D02*
X15835560Y71132849D01*
X15835560Y71132849D02*
X15879103Y71176392D01*
X16706417Y72047249D02*
X16706417Y71524735D01*
X16706417Y71785992D02*
X15792017Y71785992D01*
X15792017Y71785992D02*
X15922646Y71698906D01*
X15922646Y71698906D02*
X16009732Y71611821D01*
X16009732Y71611821D02*
X16053275Y71524735D01*
X15792017Y72874563D02*
X15792017Y72439135D01*
X15792017Y72439135D02*
X16227446Y72395592D01*
X16227446Y72395592D02*
X16183903Y72439135D01*
X16183903Y72439135D02*
X16140360Y72526220D01*
X16140360Y72526220D02*
X16140360Y72743935D01*
X16140360Y72743935D02*
X16183903Y72831020D01*
X16183903Y72831020D02*
X16227446Y72874563D01*
X16227446Y72874563D02*
X16314532Y72918106D01*
X16314532Y72918106D02*
X16532246Y72918106D01*
X16532246Y72918106D02*
X16619332Y72874563D01*
X16619332Y72874563D02*
X16662875Y72831020D01*
X16662875Y72831020D02*
X16706417Y72743935D01*
X16706417Y72743935D02*
X16706417Y72526220D01*
X16706417Y72526220D02*
X16662875Y72439135D01*
X16662875Y72439135D02*
X16619332Y72395592D01*
X10058703Y84767378D02*
X10015160Y84680292D01*
X10015160Y84680292D02*
X9928075Y84593206D01*
X9928075Y84593206D02*
X9797446Y84462578D01*
X9797446Y84462578D02*
X9753903Y84375492D01*
X9753903Y84375492D02*
X9753903Y84288406D01*
X9971617Y84331949D02*
X9928075Y84244863D01*
X9928075Y84244863D02*
X9840989Y84157778D01*
X9840989Y84157778D02*
X9666817Y84114235D01*
X9666817Y84114235D02*
X9362017Y84114235D01*
X9362017Y84114235D02*
X9187846Y84157778D01*
X9187846Y84157778D02*
X9100760Y84244863D01*
X9100760Y84244863D02*
X9057217Y84331949D01*
X9057217Y84331949D02*
X9057217Y84506121D01*
X9057217Y84506121D02*
X9100760Y84593206D01*
X9100760Y84593206D02*
X9187846Y84680292D01*
X9187846Y84680292D02*
X9362017Y84723835D01*
X9362017Y84723835D02*
X9666817Y84723835D01*
X9666817Y84723835D02*
X9840989Y84680292D01*
X9840989Y84680292D02*
X9928075Y84593206D01*
X9928075Y84593206D02*
X9971617Y84506121D01*
X9971617Y84506121D02*
X9971617Y84331949D01*
X9971617Y85594692D02*
X9971617Y85072178D01*
X9971617Y85333435D02*
X9057217Y85333435D01*
X9057217Y85333435D02*
X9187846Y85246349D01*
X9187846Y85246349D02*
X9274932Y85159264D01*
X9274932Y85159264D02*
X9318475Y85072178D01*
X13159491Y64175583D02*
X12854691Y64611011D01*
X12636977Y64175583D02*
X12636977Y65089983D01*
X12636977Y65089983D02*
X12985320Y65089983D01*
X12985320Y65089983D02*
X13072405Y65046440D01*
X13072405Y65046440D02*
X13115948Y65002897D01*
X13115948Y65002897D02*
X13159491Y64915811D01*
X13159491Y64915811D02*
X13159491Y64785183D01*
X13159491Y64785183D02*
X13115948Y64698097D01*
X13115948Y64698097D02*
X13072405Y64654554D01*
X13072405Y64654554D02*
X12985320Y64611011D01*
X12985320Y64611011D02*
X12636977Y64611011D01*
X13986805Y65089983D02*
X13551377Y65089983D01*
X13551377Y65089983D02*
X13507834Y64654554D01*
X13507834Y64654554D02*
X13551377Y64698097D01*
X13551377Y64698097D02*
X13638463Y64741640D01*
X13638463Y64741640D02*
X13856177Y64741640D01*
X13856177Y64741640D02*
X13943263Y64698097D01*
X13943263Y64698097D02*
X13986805Y64654554D01*
X13986805Y64654554D02*
X14030348Y64567468D01*
X14030348Y64567468D02*
X14030348Y64349754D01*
X14030348Y64349754D02*
X13986805Y64262668D01*
X13986805Y64262668D02*
X13943263Y64219125D01*
X13943263Y64219125D02*
X13856177Y64175583D01*
X13856177Y64175583D02*
X13638463Y64175583D01*
X13638463Y64175583D02*
X13551377Y64219125D01*
X13551377Y64219125D02*
X13507834Y64262668D01*
X9785977Y92498583D02*
X9785977Y91758354D01*
X9785977Y91758354D02*
X9829520Y91671268D01*
X9829520Y91671268D02*
X9873063Y91627725D01*
X9873063Y91627725D02*
X9960148Y91584183D01*
X9960148Y91584183D02*
X10134320Y91584183D01*
X10134320Y91584183D02*
X10221405Y91627725D01*
X10221405Y91627725D02*
X10264948Y91671268D01*
X10264948Y91671268D02*
X10308491Y91758354D01*
X10308491Y91758354D02*
X10308491Y92498583D01*
X11135806Y92193783D02*
X11135806Y91584183D01*
X10918091Y92542125D02*
X10700377Y91888983D01*
X10700377Y91888983D02*
X11266434Y91888983D01*
X10888491Y64404568D02*
X10844948Y64361025D01*
X10844948Y64361025D02*
X10714320Y64317483D01*
X10714320Y64317483D02*
X10627234Y64317483D01*
X10627234Y64317483D02*
X10496605Y64361025D01*
X10496605Y64361025D02*
X10409520Y64448111D01*
X10409520Y64448111D02*
X10365977Y64535197D01*
X10365977Y64535197D02*
X10322434Y64709368D01*
X10322434Y64709368D02*
X10322434Y64839997D01*
X10322434Y64839997D02*
X10365977Y65014168D01*
X10365977Y65014168D02*
X10409520Y65101254D01*
X10409520Y65101254D02*
X10496605Y65188340D01*
X10496605Y65188340D02*
X10627234Y65231883D01*
X10627234Y65231883D02*
X10714320Y65231883D01*
X10714320Y65231883D02*
X10844948Y65188340D01*
X10844948Y65188340D02*
X10888491Y65144797D01*
X11759348Y64317483D02*
X11236834Y64317483D01*
X11498091Y64317483D02*
X11498091Y65231883D01*
X11498091Y65231883D02*
X11411005Y65101254D01*
X11411005Y65101254D02*
X11323920Y65014168D01*
X11323920Y65014168D02*
X11236834Y64970625D01*
X12107691Y65144797D02*
X12151234Y65188340D01*
X12151234Y65188340D02*
X12238320Y65231883D01*
X12238320Y65231883D02*
X12456034Y65231883D01*
X12456034Y65231883D02*
X12543120Y65188340D01*
X12543120Y65188340D02*
X12586662Y65144797D01*
X12586662Y65144797D02*
X12630205Y65057711D01*
X12630205Y65057711D02*
X12630205Y64970625D01*
X12630205Y64970625D02*
X12586662Y64839997D01*
X12586662Y64839997D02*
X12064148Y64317483D01*
X12064148Y64317483D02*
X12630205Y64317483D01*
D11*
%TO.C,SW2*%
X12682000Y80641500D02*
X12682000Y79102100D01*
X14270800Y81371800D02*
X13633200Y81371800D01*
X14270800Y78371800D02*
X13633200Y78371800D01*
X15252000Y80646200D02*
X15252000Y79097400D01*
X14714000Y79872100D02*
G75*
G02*
X13190000Y79872100I-762000J0D01*
G01*
X13190000Y79872100D02*
G75*
G02*
X14714000Y79872100I762000J0D01*
G01*
D10*
%TO.C,R8*%
X13344400Y66476200D02*
X14341600Y66476200D01*
X13344400Y65758200D02*
X13344400Y66476200D01*
X13344400Y65305800D02*
X13344400Y64587800D01*
X13344400Y64587800D02*
X14341600Y64587800D01*
X14341600Y66476200D02*
X14341600Y65758200D01*
X14341600Y64587800D02*
X14341600Y65305800D01*
%TO.C,C6*%
X9499300Y75599800D02*
X9499300Y76292200D01*
X9651700Y76444600D02*
X10441800Y76444600D01*
X10441800Y75447400D02*
X9651700Y75447400D01*
X10894200Y75447400D02*
X11684300Y75447400D01*
X11684300Y76444600D02*
X10894200Y76444600D01*
X11836700Y75599800D02*
X11836700Y76292200D01*
X9499300Y76292200D02*
G75*
G02*
X9651700Y76444600I152400J0D01*
G01*
X9651700Y75447400D02*
G75*
G02*
X9499300Y75599800I0J152400D01*
G01*
X11684300Y76444600D02*
G75*
G02*
X11836700Y76292200I0J-152400D01*
G01*
X11836700Y75599800D02*
G75*
G02*
X11684300Y75447400I-152400J0D01*
G01*
%TO.C,U1*%
X8218800Y73061200D02*
X8218800Y72565500D01*
X8218800Y67908800D02*
X8218800Y68404500D01*
X8714500Y73061200D02*
X8218800Y73061200D01*
D12*
X8714500Y73061200D02*
X8218800Y72565500D01*
D10*
X8714500Y67908800D02*
X8218800Y67908800D01*
X12875500Y73061200D02*
X13371200Y73061200D01*
X12875500Y67908800D02*
X13371200Y67908800D01*
X13371200Y73061200D02*
X13371200Y72565500D01*
X13371200Y67908800D02*
X13371200Y68404500D01*
D13*
X7995200Y72785000D02*
G75*
G02*
X7795000Y72785000I-100100J0D01*
G01*
X7795000Y72785000D02*
G75*
G02*
X7995200Y72785000I100100J0D01*
G01*
D10*
%TO.C,C7*%
X13598400Y72743200D02*
X13598400Y73533300D01*
X13598400Y72290800D02*
X13598400Y71500700D01*
X13750800Y73685700D02*
X14443200Y73685700D01*
X13750800Y71348300D02*
X14443200Y71348300D01*
X14595600Y73533300D02*
X14595600Y72743200D01*
X14595600Y71500700D02*
X14595600Y72290800D01*
X13598400Y73533300D02*
G75*
G02*
X13750800Y73685700I152400J0D01*
G01*
X13750800Y71348300D02*
G75*
G02*
X13598400Y71500700I0J152400D01*
G01*
X14443200Y73685700D02*
G75*
G02*
X14595600Y73533300I0J-152400D01*
G01*
X14595600Y71500700D02*
G75*
G02*
X14443200Y71348300I-152400J0D01*
G01*
D12*
%TO.C,R4*%
X11342000Y66336000D02*
X12992000Y66336000D01*
X11342000Y65236000D02*
X12992000Y65236000D01*
X12342000Y66336000D02*
X12342000Y65236000D01*
D11*
%TO.C,SW1*%
X9836000Y79097400D02*
X9836000Y80646200D01*
X10817200Y81371800D02*
X11454800Y81371800D01*
X10817200Y78371800D02*
X11454800Y78371800D01*
X12406000Y79102100D02*
X12406000Y80641500D01*
X11898000Y79871500D02*
G75*
G02*
X10374000Y79871500I-762000J0D01*
G01*
X10374000Y79871500D02*
G75*
G02*
X11898000Y79871500I762000J0D01*
G01*
D10*
%TO.C,C13*%
X14383300Y71642100D02*
X14383300Y70949700D01*
X14535700Y70797300D02*
X15325800Y70797300D01*
X15325800Y71794500D02*
X14535700Y71794500D01*
X15778200Y71794500D02*
X16568300Y71794500D01*
X16568300Y70797300D02*
X15778200Y70797300D01*
X16720700Y71642100D02*
X16720700Y70949700D01*
X14383300Y71642100D02*
G75*
G02*
X14535700Y71794500I152400J0D01*
G01*
X14535700Y70797300D02*
G75*
G02*
X14383300Y70949700I0J152400D01*
G01*
X16568300Y71794500D02*
G75*
G02*
X16720700Y71642100I0J-152400D01*
G01*
X16720700Y70949700D02*
G75*
G02*
X16568300Y70797300I-152400J0D01*
G01*
%TO.C,C8*%
X14959300Y76517700D02*
X14959300Y77210100D01*
X15111700Y77362500D02*
X15901800Y77362500D01*
X15901800Y76365300D02*
X15111700Y76365300D01*
X16354200Y76365300D02*
X17144300Y76365300D01*
X17144300Y77362500D02*
X16354200Y77362500D01*
X17296700Y76517700D02*
X17296700Y77210100D01*
X14959300Y77210100D02*
G75*
G02*
X15111700Y77362500I152400J0D01*
G01*
X15111700Y76365300D02*
G75*
G02*
X14959300Y76517700I0J152400D01*
G01*
X17144300Y77362500D02*
G75*
G02*
X17296700Y77210100I0J-152400D01*
G01*
X17296700Y76517700D02*
G75*
G02*
X17144300Y76365300I-152400J0D01*
G01*
%TO.C,R2*%
X6927800Y65842500D02*
X6927800Y64845300D01*
X6927800Y64845300D02*
X7645800Y64845300D01*
X7645800Y65842500D02*
X6927800Y65842500D01*
X8098200Y65842500D02*
X8816200Y65842500D01*
X8816200Y65842500D02*
X8816200Y64845300D01*
X8816200Y64845300D02*
X8098200Y64845300D01*
%TO.C,U2*%
X14207800Y68716000D02*
X14207800Y66963600D01*
X14207800Y66963600D02*
X15249400Y66963600D01*
X15288600Y68716000D02*
X16199400Y68716000D01*
X17280200Y68716000D02*
X17280200Y66963600D01*
X17280200Y66963600D02*
X16238600Y66963600D01*
%TO.C,R7*%
X10125400Y66736100D02*
X11122600Y66736100D01*
X10125400Y66018100D02*
X10125400Y66736100D01*
X10125400Y65565700D02*
X10125400Y64847700D01*
X10125400Y64847700D02*
X11122600Y64847700D01*
X11122600Y66736100D02*
X11122600Y66018100D01*
X11122600Y64847700D02*
X11122600Y65565700D01*
%TO.C,L1*%
X7019400Y85215600D02*
X7019400Y83353200D01*
X7019400Y73788400D02*
X7019400Y75650800D01*
X9744600Y85215600D02*
X7019400Y85215600D01*
X9744600Y83353200D02*
X9744600Y85215600D01*
X9744600Y75650800D02*
X9744600Y73788400D01*
X9744600Y73788400D02*
X7019400Y73788400D01*
D11*
%TO.C,USB1*%
X7619900Y62045000D02*
X7619900Y60479000D01*
X7619900Y60479000D02*
X7625400Y60479000D01*
X7619900Y58095200D02*
X7619900Y56616100D01*
X7619900Y56616100D02*
X16763900Y56616100D01*
X8118300Y60479000D02*
X10794900Y60479000D01*
X8635900Y62077100D02*
X8635900Y61315100D01*
X8635900Y61315100D02*
X10413900Y61315100D01*
X10413900Y62077100D02*
X8635900Y62077100D01*
X10413900Y61315100D02*
X10413900Y62077100D01*
X10794900Y60479000D02*
X10794900Y58140100D01*
X10794900Y58140100D02*
X8232800Y58140100D01*
X13334900Y60479000D02*
X13334900Y58140100D01*
X13334900Y58140100D02*
X16151000Y58140100D01*
X13969900Y62077100D02*
X13969900Y61315100D01*
X13969900Y61315100D02*
X15747900Y61315100D01*
X15747900Y62077100D02*
X13969900Y62077100D01*
X15747900Y61315100D02*
X15747900Y62077100D01*
X16265500Y60479000D02*
X13334900Y60479000D01*
X16763900Y60479000D02*
X16758400Y60479000D01*
X16763900Y60479000D02*
X16763900Y62045000D01*
X16763900Y56616100D02*
X16763900Y58095200D01*
%TO.C,C16*%
X14338500Y70485500D02*
X14338500Y69685500D01*
X15448400Y70795300D02*
X14648400Y70795300D01*
X15448400Y69375700D02*
X14648400Y69375700D01*
X16024300Y70789500D02*
X16824200Y70789500D01*
X16024300Y69369900D02*
X16824200Y69369900D01*
X17134000Y70479700D02*
X17134000Y69679600D01*
X14338500Y70485500D02*
G75*
G02*
X14648300Y70795300I309799J1D01*
G01*
X14648300Y69375700D02*
G75*
G02*
X14338500Y69685500I-1J309799D01*
G01*
X16824200Y70789500D02*
G75*
G02*
X17134000Y70479700I0J-309800D01*
G01*
X17134000Y69679700D02*
G75*
G02*
X16824200Y69369900I-309800J0D01*
G01*
D10*
%TO.C,C1*%
X7478200Y65963501D02*
X8251100Y65799200D01*
X7504800Y66821500D02*
X7360900Y66144200D01*
X8458400Y66774600D02*
X7685600Y66938900D01*
X8900900Y66680600D02*
X9673800Y66516299D01*
X9466400Y65540900D02*
X8693600Y65705200D01*
X9791100Y66335600D02*
X9647200Y65658300D01*
X7478200Y65963501D02*
G75*
G02*
X7360945Y66144190I31590J148890D01*
G01*
X7504800Y66821500D02*
G75*
G02*
X7685601Y66938903I149101J-31698D01*
G01*
X9647200Y65658300D02*
G75*
G02*
X9466400Y65540899I-149101J31700D01*
G01*
X9673800Y66516299D02*
G75*
G02*
X9791100Y66335600I-31576J-148919D01*
G01*
%TO.C,C2*%
X9499300Y74387200D02*
X9499300Y73694800D01*
X9651700Y73542400D02*
X10441800Y73542400D01*
X10441800Y74539600D02*
X9651700Y74539600D01*
X10894200Y74539600D02*
X11684300Y74539600D01*
X11684300Y73542400D02*
X10894200Y73542400D01*
X11836700Y74387200D02*
X11836700Y73694800D01*
X9499300Y74387200D02*
G75*
G02*
X9651700Y74539600I152400J0D01*
G01*
X9651700Y73542400D02*
G75*
G02*
X9499300Y73694800I0J152400D01*
G01*
X11684300Y74539600D02*
G75*
G02*
X11836700Y74387200I0J-152400D01*
G01*
X11836700Y73694800D02*
G75*
G02*
X11684300Y73542400I-152400J0D01*
G01*
%TO.C,X1*%
X11300900Y77822200D02*
X11300900Y75965000D01*
X11529500Y77593600D02*
X14886700Y77593600D01*
X11529500Y73536400D02*
X11529500Y77593600D01*
X12958100Y77822200D02*
X11300900Y77822200D01*
X14886700Y77593600D02*
X14886700Y73536400D01*
X14886700Y73536400D02*
X11529500Y73536400D01*
%TO.C,C3*%
X16397400Y72034100D02*
X16397400Y72824200D01*
X16397400Y71581700D02*
X16397400Y70791600D01*
X16549800Y72976600D02*
X17242200Y72976600D01*
X16549800Y70639200D02*
X17242200Y70639200D01*
X17394600Y72824200D02*
X17394600Y72034100D01*
X17394600Y70791600D02*
X17394600Y71581700D01*
X16397400Y72824200D02*
G75*
G02*
X16549800Y72976600I152400J0D01*
G01*
X16549800Y70639200D02*
G75*
G02*
X16397400Y70791600I0J152400D01*
G01*
X17242200Y72976600D02*
G75*
G02*
X17394600Y72824200I0J-152400D01*
G01*
X17394600Y70791600D02*
G75*
G02*
X17242200Y70639200I-152400J0D01*
G01*
%TO.C,R3*%
X15184000Y79088501D02*
X16108600Y79462100D01*
X15453000Y78422800D02*
X15184000Y79088501D01*
X15622500Y78003301D02*
X15891400Y77337500D01*
X15891400Y77337500D02*
X16816000Y77711099D01*
X16108600Y79462100D02*
X16377500Y78796299D01*
X16816000Y77711099D02*
X16547000Y78376800D01*
D14*
%TO.C,U5*%
X14858000Y75190900D02*
X15112000Y75190900D01*
X14858000Y74555900D02*
X14858000Y75190900D01*
X14858000Y72904900D02*
X14858000Y73539900D01*
X15112000Y72904900D02*
X14858000Y72904900D01*
X17144000Y72904900D02*
X17398000Y72904900D01*
X17398000Y75190900D02*
X17172100Y75190900D01*
X17398000Y74555900D02*
X17398000Y75190900D01*
X17398000Y72904900D02*
X17398000Y73539900D01*
D15*
X16953000Y75505400D02*
G75*
G02*
X16803200Y75505400I-74900J0D01*
G01*
X16803200Y75505400D02*
G75*
G02*
X16953000Y75505400I74900J0D01*
G01*
D10*
%TO.C,C10*%
X9499300Y75022200D02*
X9499300Y74329800D01*
X9651700Y74177400D02*
X10441800Y74177400D01*
X10441800Y75174600D02*
X9651700Y75174600D01*
X10894200Y75174600D02*
X11684300Y75174600D01*
X11684300Y74177400D02*
X10894200Y74177400D01*
X11836700Y75022200D02*
X11836700Y74329800D01*
X9499300Y75022200D02*
G75*
G02*
X9651700Y75174600I152400J0D01*
G01*
X9651700Y74177400D02*
G75*
G02*
X9499300Y74329800I0J152400D01*
G01*
X11684300Y75174600D02*
G75*
G02*
X11836700Y75022200I0J-152400D01*
G01*
X11836700Y74329800D02*
G75*
G02*
X11684300Y74177400I-152400J0D01*
G01*
D11*
%TO.C,C5*%
X14530500Y66005500D02*
X14530500Y65205500D01*
X15640400Y66315300D02*
X14840400Y66315300D01*
X15640400Y64895700D02*
X14840400Y64895700D01*
X16216300Y66309500D02*
X17016200Y66309500D01*
X16216300Y64889900D02*
X17016200Y64889900D01*
X17326000Y65999700D02*
X17326000Y65199600D01*
X14530500Y66005500D02*
G75*
G02*
X14840300Y66315300I309799J1D01*
G01*
X14840300Y64895700D02*
G75*
G02*
X14530500Y65205500I-1J309799D01*
G01*
X17016200Y66309500D02*
G75*
G02*
X17326000Y65999700I0J-309800D01*
G01*
X17326000Y65199700D02*
G75*
G02*
X17016200Y64889900I-309800J0D01*
G01*
D10*
%TO.C,C4*%
X14383300Y72101700D02*
X14383300Y72794100D01*
X14535700Y72946500D02*
X15325800Y72946500D01*
X15325800Y71949300D02*
X14535700Y71949300D01*
X15778200Y71949300D02*
X16568300Y71949300D01*
X16568300Y72946500D02*
X15778200Y72946500D01*
X16720700Y72101700D02*
X16720700Y72794100D01*
X14383300Y72794100D02*
G75*
G02*
X14535700Y72946500I152400J0D01*
G01*
X14535700Y71949300D02*
G75*
G02*
X14383300Y72101700I0J152400D01*
G01*
X16568300Y72946500D02*
G75*
G02*
X16720700Y72794100I0J-152400D01*
G01*
X16720700Y72101700D02*
G75*
G02*
X16568300Y71949300I-152400J0D01*
G01*
%TO.C,C9*%
X6895300Y67482100D02*
X6895300Y66789700D01*
X7047700Y66637300D02*
X7837800Y66637300D01*
X7837800Y67634500D02*
X7047700Y67634500D01*
X8290200Y67634500D02*
X9080300Y67634500D01*
X9080300Y66637300D02*
X8290200Y66637300D01*
X9232700Y67482100D02*
X9232700Y66789700D01*
X6895300Y67482100D02*
G75*
G02*
X7047700Y67634500I152400J0D01*
G01*
X7047700Y66637300D02*
G75*
G02*
X6895300Y66789700I0J152400D01*
G01*
X9080300Y67634500D02*
G75*
G02*
X9232700Y67482100I0J-152400D01*
G01*
X9232700Y66789700D02*
G75*
G02*
X9080300Y66637300I-152400J0D01*
G01*
%TO.C,C11*%
X6994400Y72235200D02*
X6994400Y73025300D01*
X6994400Y71782800D02*
X6994400Y70992700D01*
X7146800Y73177700D02*
X7839200Y73177700D01*
X7146800Y70840300D02*
X7839200Y70840300D01*
X7991600Y73025300D02*
X7991600Y72235200D01*
X7991600Y70992700D02*
X7991600Y71782800D01*
X6994400Y73025300D02*
G75*
G02*
X7146800Y73177700I152400J0D01*
G01*
X7146800Y70840300D02*
G75*
G02*
X6994400Y70992700I0J152400D01*
G01*
X7839200Y73177700D02*
G75*
G02*
X7991600Y73025300I0J-152400D01*
G01*
X7991600Y70992700D02*
G75*
G02*
X7839200Y70840300I-152400J0D01*
G01*
%TO.C,C15*%
X13581400Y70562100D02*
X13581400Y71352200D01*
X13581400Y70109700D02*
X13581400Y69319600D01*
X13733800Y71504600D02*
X14426200Y71504600D01*
X13733800Y69167200D02*
X14426200Y69167200D01*
X14578600Y71352200D02*
X14578600Y70562100D01*
X14578600Y69319600D02*
X14578600Y70109700D01*
X13581400Y71352200D02*
G75*
G02*
X13733800Y71504600I152400J0D01*
G01*
X13733800Y69167200D02*
G75*
G02*
X13581400Y69319600I0J152400D01*
G01*
X14426200Y71504600D02*
G75*
G02*
X14578600Y71352200I0J-152400D01*
G01*
X14578600Y69319600D02*
G75*
G02*
X14426200Y69167200I-152400J0D01*
G01*
%TO.C,Q1*%
X10441800Y84566000D02*
X10441800Y83113600D01*
X10441800Y83113600D02*
X11473400Y83113600D01*
X11512600Y84566000D02*
X12423400Y84566000D01*
X13494200Y84566000D02*
X13494200Y83113600D01*
X13494200Y83113600D02*
X12462600Y83113600D01*
%TO.C,R5*%
X11374800Y67300600D02*
X11374800Y66303400D01*
X11374800Y66303400D02*
X12092800Y66303400D01*
X12092800Y67300600D02*
X11374800Y67300600D01*
X12545200Y67300600D02*
X13263200Y67300600D01*
X13263200Y67300600D02*
X13263200Y66303400D01*
X13263200Y66303400D02*
X12545200Y66303400D01*
D11*
%TO.C,U4*%
X7595000Y91333800D02*
X11595000Y91333800D01*
X7595000Y87333800D02*
X7595000Y91333800D01*
X11595000Y91333800D02*
X11595000Y87333800D01*
X11595000Y87333800D02*
X7595000Y87333800D01*
D10*
%TO.C,C12*%
X8879300Y67290100D02*
X8879300Y66597700D01*
X9031700Y66445300D02*
X9821800Y66445300D01*
X9821800Y67442500D02*
X9031700Y67442500D01*
X10274200Y67442500D02*
X11064300Y67442500D01*
X11064300Y66445300D02*
X10274200Y66445300D01*
X11216700Y67290100D02*
X11216700Y66597700D01*
X8879300Y67290100D02*
G75*
G02*
X9031700Y67442500I152400J0D01*
G01*
X9031700Y66445300D02*
G75*
G02*
X8879300Y66597700I0J152400D01*
G01*
X11064300Y67442500D02*
G75*
G02*
X11216700Y67290100I0J-152400D01*
G01*
X11216700Y66597700D02*
G75*
G02*
X11064300Y66445300I-152400J0D01*
G01*
%TD*%
%LPC*%
D16*
%TO.C,SW2*%
X14851900Y81371700D03*
D17*
X14851900Y78371700D03*
X13052100Y81371700D03*
X13052100Y78371700D03*
%TD*%
D18*
%TO.C,R8*%
X13843000Y65964800D03*
X13843000Y65099200D03*
%TD*%
D19*
%TO.C,C6*%
X10122900Y75945900D03*
D20*
X11213100Y75946100D03*
%TD*%
D21*
%TO.C,U1*%
X8317500Y72235100D03*
X8317500Y71734900D03*
X8317500Y71235100D03*
X8317500Y70734900D03*
X8317500Y70235100D03*
X8317500Y69734900D03*
X8317500Y69235100D03*
X8317500Y68734900D03*
D22*
X9044900Y68007500D03*
X9545100Y68007500D03*
X10044900Y68007500D03*
X10545100Y68007500D03*
X11044900Y68007500D03*
X11545100Y68007500D03*
X12044900Y68007500D03*
X12545100Y68007500D03*
D21*
X13272500Y68734900D03*
X13272500Y69235100D03*
X13272500Y69734900D03*
X13272500Y70235100D03*
X13272500Y70734900D03*
X13272500Y71235100D03*
X13272500Y71734900D03*
X13272500Y72235100D03*
D22*
X12545100Y72962500D03*
X12044900Y72962500D03*
X11545100Y72962500D03*
X11044900Y72962500D03*
X10545100Y72962500D03*
X10044900Y72962500D03*
X9545100Y72962500D03*
X9044900Y72962500D03*
D23*
X10795000Y70485000D03*
%TD*%
D24*
%TO.C,C7*%
X14097000Y73062100D03*
X14097000Y71971900D03*
%TD*%
D25*
%TO.C,R4*%
X11441900Y65786000D03*
X12942100Y65786000D03*
%TD*%
D17*
%TO.C,SW1*%
X10236100Y78371700D03*
D16*
X10236100Y81371700D03*
X12035900Y78371700D03*
X12035900Y81371700D03*
%TD*%
D26*
%TO.C,C13*%
X16097100Y71295900D03*
X15006900Y71295900D03*
%TD*%
D19*
%TO.C,C8*%
X15582900Y76863900D03*
X16673100Y76863900D03*
%TD*%
D27*
%TO.C,R2*%
X8304800Y65343900D03*
X7439200Y65343900D03*
%TD*%
D28*
%TO.C,U2*%
X16694000Y69075000D03*
X14794000Y69075000D03*
X15744000Y66604800D03*
%TD*%
D18*
%TO.C,R7*%
X10624000Y66224700D03*
X10624000Y65359100D03*
%TD*%
D29*
%TO.C,L1*%
X8382000Y74872100D03*
D30*
X8382000Y84131900D03*
%TD*%
D31*
%TO.C,USB1*%
X9302000Y62966900D03*
X15082000Y62966900D03*
D32*
X7872000Y63486800D03*
D33*
X7872000Y59286900D03*
D32*
X16512000Y63486800D03*
D33*
X16512000Y59286900D03*
D34*
X8991900Y63903100D03*
D35*
X9792000Y63903100D03*
D36*
X10942100Y63903100D03*
X11942100Y63903100D03*
X12441900Y63903100D03*
X13441900Y63903100D03*
D35*
X15391900Y63903100D03*
D34*
X14592000Y63903100D03*
D36*
X13942100Y63903100D03*
X12942100Y63903100D03*
X11441900Y63903100D03*
X10441900Y63903100D03*
%TD*%
D37*
%TO.C,C16*%
X15044000Y70079900D03*
X16444000Y70079900D03*
%TD*%
D38*
%TO.C,C1*%
X9109200Y66126600D03*
X8042800Y66353200D03*
%TD*%
D26*
%TO.C,C2*%
X11212900Y74041000D03*
X10123100Y74041000D03*
%TD*%
D39*
%TO.C,X1*%
X12358100Y76665100D03*
X12358100Y74464900D03*
X14058100Y74464900D03*
X14058100Y76665100D03*
%TD*%
D24*
%TO.C,C3*%
X16896000Y72353000D03*
X16896000Y71262800D03*
%TD*%
D40*
%TO.C,R3*%
X15837800Y78801000D03*
X16162200Y77998600D03*
%TD*%
D41*
%TO.C,U5*%
X16878100Y74922900D03*
X16377900Y74922900D03*
X15878100Y74922900D03*
X15377900Y74922900D03*
D42*
X15253000Y74297800D03*
X15253000Y73798000D03*
D41*
X15377900Y73172900D03*
X15878100Y73172900D03*
X16377900Y73172900D03*
X16878100Y73172900D03*
D42*
X17003000Y73798000D03*
X17003000Y74297800D03*
%TD*%
D26*
%TO.C,C10*%
X11212900Y74676000D03*
X10123100Y74676000D03*
%TD*%
D37*
%TO.C,C5*%
X15236000Y65599900D03*
X16636000Y65599900D03*
%TD*%
D19*
%TO.C,C4*%
X15006900Y72447900D03*
X16097100Y72447900D03*
%TD*%
D26*
%TO.C,C9*%
X8609000Y67135800D03*
X7519000Y67136000D03*
%TD*%
D24*
%TO.C,C11*%
X7493000Y72554100D03*
X7493000Y71463900D03*
%TD*%
%TO.C,C15*%
X14080000Y70881000D03*
X14080000Y69790800D03*
%TD*%
D43*
%TO.C,Q1*%
X12918000Y84839800D03*
X11018000Y84839800D03*
X11968000Y82839800D03*
%TD*%
D27*
%TO.C,R5*%
X12751800Y66802000D03*
X11886200Y66802000D03*
%TD*%
D44*
%TO.C,U4*%
X8960000Y88313800D03*
X10260000Y88313800D03*
%TD*%
D26*
%TO.C,C12*%
X10593100Y66943900D03*
X9502900Y66943900D03*
%TD*%
%LPD*%
M02*
